<?xml version="1.0" encoding="utf-8" standalone="no"?>
<!DOCTYPE svg PUBLIC "-//W3C//DTD SVG 1.1//EN"
  "http://www.w3.org/Graphics/SVG/1.1/DTD/svg11.dtd">
<svg xmlns:xlink="http://www.w3.org/1999/xlink" width="723.24pt" height="511.054211pt" viewBox="0 0 723.24 511.054211" xmlns="http://www.w3.org/2000/svg" version="1.1">
 <metadata>
  <rdf:RDF xmlns:dc="http://purl.org/dc/elements/1.1/" xmlns:cc="http://creativecommons.org/ns#" xmlns:rdf="http://www.w3.org/1999/02/22-rdf-syntax-ns#">
   <cc:Work>
    <dc:type rdf:resource="http://purl.org/dc/dcmitype/StillImage"/>
    <dc:date>2026-07-08T22:07:54.693554</dc:date>
    <dc:format>image/svg+xml</dc:format>
    <dc:creator>
     <cc:Agent>
      <dc:title>Matplotlib v3.11.0, https://matplotlib.org/</dc:title>
     </cc:Agent>
    </dc:creator>
   </cc:Work>
  </rdf:RDF>
 </metadata>
 <defs>
  <style type="text/css">*{stroke-linejoin: round; stroke-linecap: butt}</style>
 </defs>
 <g id="figure_1">
  <g id="patch_1">
   <path d="M 0 511.054211 
L 723.24 511.054211 
L 723.24 -0 
L 0 -0 
z
" style="fill: #1a1a19"/>
  </g>
  <g id="axes_1">
   <g id="patch_2">
    <path d="M 102.24 420.007223 
L 716.04 420.007223 
L 716.04 54.103223 
L 102.24 54.103223 
z
" style="fill: #1a1a19"/>
   </g>
   <g id="matplotlib.axis_1">
    <g id="xtick_1">
     <g id="line2d_1"/>
     <g id="text_1">
      <!-- SELECTIVITY -->
      <g style="fill: #c3c2b7" transform="translate(208.635993 435.211051) scale(0.11 -0.11)">
       <defs>
        <path id="DejaVuSans-36" d="M 3425 4513 
L 3425 3897 
Q 3066 4069 2747 4153 
Q 2428 4238 2131 4238 
Q 1616 4238 1336 4038 
Q 1056 3838 1056 3469 
Q 1056 3159 1242 3001 
Q 1428 2844 1947 2747 
L 2328 2669 
Q 3034 2534 3370 2195 
Q 3706 1856 3706 1288 
Q 3706 609 3251 259 
Q 2797 -91 1919 -91 
Q 1588 -91 1214 -16 
Q 841 59 441 206 
L 441 856 
Q 825 641 1194 531 
Q 1563 422 1919 422 
Q 2459 422 2753 634 
Q 3047 847 3047 1241 
Q 3047 1584 2836 1778 
Q 2625 1972 2144 2069 
L 1759 2144 
Q 1053 2284 737 2584 
Q 422 2884 422 3419 
Q 422 4038 858 4394 
Q 1294 4750 2059 4750 
Q 2388 4750 2728 4690 
Q 3069 4631 3425 4513 
z
" transform="scale(0.015625)"/>
        <path id="DejaVuSans-28" d="M 628 4666 
L 3578 4666 
L 3578 4134 
L 1259 4134 
L 1259 2753 
L 3481 2753 
L 3481 2222 
L 1259 2222 
L 1259 531 
L 3634 531 
L 3634 0 
L 628 0 
L 628 4666 
z
" transform="scale(0.015625)"/>
        <path id="DejaVuSans-2f" d="M 628 4666 
L 1259 4666 
L 1259 531 
L 3531 531 
L 3531 0 
L 628 0 
L 628 4666 
z
" transform="scale(0.015625)"/>
        <path id="DejaVuSans-26" d="M 4122 4306 
L 4122 3641 
Q 3803 3938 3442 4084 
Q 3081 4231 2675 4231 
Q 1875 4231 1450 3742 
Q 1025 3253 1025 2328 
Q 1025 1406 1450 917 
Q 1875 428 2675 428 
Q 3081 428 3442 575 
Q 3803 722 4122 1019 
L 4122 359 
Q 3791 134 3420 21 
Q 3050 -91 2638 -91 
Q 1578 -91 968 557 
Q 359 1206 359 2328 
Q 359 3453 968 4101 
Q 1578 4750 2638 4750 
Q 3056 4750 3426 4639 
Q 3797 4528 4122 4306 
z
" transform="scale(0.015625)"/>
        <path id="DejaVuSans-37" d="M -19 4666 
L 3928 4666 
L 3928 4134 
L 2272 4134 
L 2272 0 
L 1638 0 
L 1638 4134 
L -19 4134 
L -19 4666 
z
" transform="scale(0.015625)"/>
        <path id="DejaVuSans-2c" d="M 628 4666 
L 1259 4666 
L 1259 0 
L 628 0 
L 628 4666 
z
" transform="scale(0.015625)"/>
        <path id="DejaVuSans-39" d="M 1831 0 
L 50 4666 
L 709 4666 
L 2188 738 
L 3669 4666 
L 4325 4666 
L 2547 0 
L 1831 0 
z
" transform="scale(0.015625)"/>
        <path id="DejaVuSans-3c" d="M -13 4666 
L 666 4666 
L 1959 2747 
L 3244 4666 
L 3922 4666 
L 2272 2222 
L 2272 0 
L 1638 0 
L 1638 2222 
L -13 4666 
z
" transform="scale(0.015625)"/>
       </defs>
       <use xlink:href="#DejaVuSans-36"/>
       <use xlink:href="#DejaVuSans-28" transform="translate(63.484375 0)"/>
       <use xlink:href="#DejaVuSans-2f" transform="translate(126.671875 0)"/>
       <use xlink:href="#DejaVuSans-28" transform="translate(182.390625 0)"/>
       <use xlink:href="#DejaVuSans-26" transform="translate(245.578125 0)"/>
       <use xlink:href="#DejaVuSans-37" transform="translate(315.40625 0)"/>
       <use xlink:href="#DejaVuSans-2c" transform="translate(376.484375 0)"/>
       <use xlink:href="#DejaVuSans-39" transform="translate(405.984375 0)"/>
       <use xlink:href="#DejaVuSans-2c" transform="translate(474.390625 0)"/>
       <use xlink:href="#DejaVuSans-37" transform="translate(503.890625 0)"/>
       <use xlink:href="#DejaVuSans-3c" transform="translate(564.96875 0)"/>
      </g>
      <!-- (we demoted it) -->
      <g style="fill: #c3c2b7" transform="translate(199.08404 450.061051) scale(0.11 -0.11)">
       <defs>
        <path id="DejaVuSans-b" d="M 1984 4856 
Q 1566 4138 1362 3434 
Q 1159 2731 1159 2009 
Q 1159 1288 1364 580 
Q 1569 -128 1984 -844 
L 1484 -844 
Q 1016 -109 783 600 
Q 550 1309 550 2009 
Q 550 2706 781 3412 
Q 1013 4119 1484 4856 
L 1984 4856 
z
" transform="scale(0.015625)"/>
        <path id="DejaVuSans-5a" d="M 269 3500 
L 844 3500 
L 1563 769 
L 2278 3500 
L 2956 3500 
L 3675 769 
L 4391 3500 
L 4966 3500 
L 4050 0 
L 3372 0 
L 2619 2869 
L 1863 0 
L 1184 0 
L 269 3500 
z
" transform="scale(0.015625)"/>
        <path id="DejaVuSans-48" d="M 3597 1894 
L 3597 1613 
L 953 1613 
Q 991 1019 1311 708 
Q 1631 397 2203 397 
Q 2534 397 2845 478 
Q 3156 559 3463 722 
L 3463 178 
Q 3153 47 2828 -22 
Q 2503 -91 2169 -91 
Q 1331 -91 842 396 
Q 353 884 353 1716 
Q 353 2575 817 3079 
Q 1281 3584 2069 3584 
Q 2775 3584 3186 3129 
Q 3597 2675 3597 1894 
z
M 3022 2063 
Q 3016 2534 2758 2815 
Q 2500 3097 2075 3097 
Q 1594 3097 1305 2825 
Q 1016 2553 972 2059 
L 3022 2063 
z
" transform="scale(0.015625)"/>
        <path id="DejaVuSans-3" transform="scale(0.015625)"/>
        <path id="DejaVuSans-47" d="M 2906 2969 
L 2906 4863 
L 3481 4863 
L 3481 0 
L 2906 0 
L 2906 525 
Q 2725 213 2448 61 
Q 2172 -91 1784 -91 
Q 1150 -91 751 415 
Q 353 922 353 1747 
Q 353 2572 751 3078 
Q 1150 3584 1784 3584 
Q 2172 3584 2448 3432 
Q 2725 3281 2906 2969 
z
M 947 1747 
Q 947 1113 1208 752 
Q 1469 391 1925 391 
Q 2381 391 2643 752 
Q 2906 1113 2906 1747 
Q 2906 2381 2643 2742 
Q 2381 3103 1925 3103 
Q 1469 3103 1208 2742 
Q 947 2381 947 1747 
z
" transform="scale(0.015625)"/>
        <path id="DejaVuSans-50" d="M 3328 2828 
Q 3544 3216 3844 3400 
Q 4144 3584 4550 3584 
Q 5097 3584 5394 3201 
Q 5691 2819 5691 2113 
L 5691 0 
L 5113 0 
L 5113 2094 
Q 5113 2597 4934 2840 
Q 4756 3084 4391 3084 
Q 3944 3084 3684 2787 
Q 3425 2491 3425 1978 
L 3425 0 
L 2847 0 
L 2847 2094 
Q 2847 2600 2669 2842 
Q 2491 3084 2119 3084 
Q 1678 3084 1418 2786 
Q 1159 2488 1159 1978 
L 1159 0 
L 581 0 
L 581 3500 
L 1159 3500 
L 1159 2956 
Q 1356 3278 1631 3431 
Q 1906 3584 2284 3584 
Q 2666 3584 2933 3390 
Q 3200 3197 3328 2828 
z
" transform="scale(0.015625)"/>
        <path id="DejaVuSans-52" d="M 1959 3097 
Q 1497 3097 1228 2736 
Q 959 2375 959 1747 
Q 959 1119 1226 758 
Q 1494 397 1959 397 
Q 2419 397 2687 759 
Q 2956 1122 2956 1747 
Q 2956 2369 2687 2733 
Q 2419 3097 1959 3097 
z
M 1959 3584 
Q 2709 3584 3137 3096 
Q 3566 2609 3566 1747 
Q 3566 888 3137 398 
Q 2709 -91 1959 -91 
Q 1206 -91 779 398 
Q 353 888 353 1747 
Q 353 2609 779 3096 
Q 1206 3584 1959 3584 
z
" transform="scale(0.015625)"/>
        <path id="DejaVuSans-57" d="M 1172 4494 
L 1172 3500 
L 2356 3500 
L 2356 3053 
L 1172 3053 
L 1172 1153 
Q 1172 725 1289 603 
Q 1406 481 1766 481 
L 2356 481 
L 2356 0 
L 1766 0 
Q 1100 0 847 248 
Q 594 497 594 1153 
L 594 3053 
L 172 3053 
L 172 3500 
L 594 3500 
L 594 4494 
L 1172 4494 
z
" transform="scale(0.015625)"/>
        <path id="DejaVuSans-4c" d="M 603 3500 
L 1178 3500 
L 1178 0 
L 603 0 
L 603 3500 
z
M 603 4863 
L 1178 4863 
L 1178 4134 
L 603 4134 
L 603 4863 
z
" transform="scale(0.015625)"/>
        <path id="DejaVuSans-c" d="M 513 4856 
L 1013 4856 
Q 1481 4119 1714 3412 
Q 1947 2706 1947 2009 
Q 1947 1309 1714 600 
Q 1481 -109 1013 -844 
L 513 -844 
Q 928 -128 1133 580 
Q 1338 1288 1338 2009 
Q 1338 2731 1133 3434 
Q 928 4138 513 4856 
z
" transform="scale(0.015625)"/>
       </defs>
       <use xlink:href="#DejaVuSans-b"/>
       <use xlink:href="#DejaVuSans-5a" transform="translate(39.015625 0)"/>
       <use xlink:href="#DejaVuSans-48" transform="translate(120.796875 0)"/>
       <use xlink:href="#DejaVuSans-3" transform="translate(182.328125 0)"/>
       <use xlink:href="#DejaVuSans-47" transform="translate(214.109375 0)"/>
       <use xlink:href="#DejaVuSans-48" transform="translate(277.59375 0)"/>
       <use xlink:href="#DejaVuSans-50" transform="translate(339.125 0)"/>
       <use xlink:href="#DejaVuSans-52" transform="translate(436.53125 0)"/>
       <use xlink:href="#DejaVuSans-57" transform="translate(497.71875 0)"/>
       <use xlink:href="#DejaVuSans-48" transform="translate(536.921875 0)"/>
       <use xlink:href="#DejaVuSans-47" transform="translate(598.453125 0)"/>
       <use xlink:href="#DejaVuSans-3" transform="translate(661.9375 0)"/>
       <use xlink:href="#DejaVuSans-4c" transform="translate(693.71875 0)"/>
       <use xlink:href="#DejaVuSans-57" transform="translate(721.5 0)"/>
       <use xlink:href="#DejaVuSans-c" transform="translate(760.703125 0)"/>
      </g>
     </g>
    </g>
    <g id="xtick_2">
     <g id="line2d_2"/>
     <g id="text_2">
      <!-- CO-INHIBITORY -->
      <g style="fill: #c3c2b7" transform="translate(533.493929 435.211051) scale(0.11 -0.11)">
       <defs>
        <path id="DejaVuSans-32" d="M 2522 4238 
Q 1834 4238 1429 3725 
Q 1025 3213 1025 2328 
Q 1025 1447 1429 934 
Q 1834 422 2522 422 
Q 3209 422 3611 934 
Q 4013 1447 4013 2328 
Q 4013 3213 3611 3725 
Q 3209 4238 2522 4238 
z
M 2522 4750 
Q 3503 4750 4090 4092 
Q 4678 3434 4678 2328 
Q 4678 1225 4090 567 
Q 3503 -91 2522 -91 
Q 1538 -91 948 565 
Q 359 1222 359 2328 
Q 359 3434 948 4092 
Q 1538 4750 2522 4750 
z
" transform="scale(0.015625)"/>
        <path id="DejaVuSans-10" d="M 313 2009 
L 1997 2009 
L 1997 1497 
L 313 1497 
L 313 2009 
z
" transform="scale(0.015625)"/>
        <path id="DejaVuSans-31" d="M 628 4666 
L 1478 4666 
L 3547 763 
L 3547 4666 
L 4159 4666 
L 4159 0 
L 3309 0 
L 1241 3903 
L 1241 0 
L 628 0 
L 628 4666 
z
" transform="scale(0.015625)"/>
        <path id="DejaVuSans-2b" d="M 628 4666 
L 1259 4666 
L 1259 2753 
L 3553 2753 
L 3553 4666 
L 4184 4666 
L 4184 0 
L 3553 0 
L 3553 2222 
L 1259 2222 
L 1259 0 
L 628 0 
L 628 4666 
z
" transform="scale(0.015625)"/>
        <path id="DejaVuSans-25" d="M 1259 2228 
L 1259 519 
L 2272 519 
Q 2781 519 3026 730 
Q 3272 941 3272 1375 
Q 3272 1813 3026 2020 
Q 2781 2228 2272 2228 
L 1259 2228 
z
M 1259 4147 
L 1259 2741 
L 2194 2741 
Q 2656 2741 2882 2914 
Q 3109 3088 3109 3444 
Q 3109 3797 2882 3972 
Q 2656 4147 2194 4147 
L 1259 4147 
z
M 628 4666 
L 2241 4666 
Q 2963 4666 3353 4366 
Q 3744 4066 3744 3513 
Q 3744 3084 3544 2831 
Q 3344 2578 2956 2516 
Q 3422 2416 3680 2098 
Q 3938 1781 3938 1306 
Q 3938 681 3513 340 
Q 3088 0 2303 0 
L 628 0 
L 628 4666 
z
" transform="scale(0.015625)"/>
        <path id="DejaVuSans-35" d="M 2841 2188 
Q 3044 2119 3236 1894 
Q 3428 1669 3622 1275 
L 4263 0 
L 3584 0 
L 2988 1197 
Q 2756 1666 2539 1819 
Q 2322 1972 1947 1972 
L 1259 1972 
L 1259 0 
L 628 0 
L 628 4666 
L 2053 4666 
Q 2853 4666 3247 4331 
Q 3641 3997 3641 3322 
Q 3641 2881 3436 2590 
Q 3231 2300 2841 2188 
z
M 1259 4147 
L 1259 2491 
L 2053 2491 
Q 2509 2491 2742 2702 
Q 2975 2913 2975 3322 
Q 2975 3731 2742 3939 
Q 2509 4147 2053 4147 
L 1259 4147 
z
" transform="scale(0.015625)"/>
       </defs>
       <use xlink:href="#DejaVuSans-26"/>
       <use xlink:href="#DejaVuSans-32" transform="translate(69.828125 0)"/>
       <use xlink:href="#DejaVuSans-10" transform="translate(151.328125 0)"/>
       <use xlink:href="#DejaVuSans-2c" transform="translate(187.40625 0)"/>
       <use xlink:href="#DejaVuSans-31" transform="translate(216.90625 0)"/>
       <use xlink:href="#DejaVuSans-2b" transform="translate(291.71875 0)"/>
       <use xlink:href="#DejaVuSans-2c" transform="translate(366.921875 0)"/>
       <use xlink:href="#DejaVuSans-25" transform="translate(396.421875 0)"/>
       <use xlink:href="#DejaVuSans-2c" transform="translate(465.03125 0)"/>
       <use xlink:href="#DejaVuSans-37" transform="translate(494.53125 0)"/>
       <use xlink:href="#DejaVuSans-32" transform="translate(555.609375 0)"/>
       <use xlink:href="#DejaVuSans-35" transform="translate(634.328125 0)"/>
       <use xlink:href="#DejaVuSans-3c" transform="translate(697.421875 0)"/>
      </g>
      <!-- (we kept it) -->
      <g style="fill: #c3c2b7" transform="translate(543.836507 449.642535) scale(0.11 -0.11)">
       <defs>
        <path id="DejaVuSans-4e" d="M 581 4863 
L 1159 4863 
L 1159 1991 
L 2875 3500 
L 3609 3500 
L 1753 1863 
L 3688 0 
L 2938 0 
L 1159 1709 
L 1159 0 
L 581 0 
L 581 4863 
z
" transform="scale(0.015625)"/>
        <path id="DejaVuSans-53" d="M 1159 525 
L 1159 -1331 
L 581 -1331 
L 581 3500 
L 1159 3500 
L 1159 2969 
Q 1341 3281 1617 3432 
Q 1894 3584 2278 3584 
Q 2916 3584 3314 3078 
Q 3713 2572 3713 1747 
Q 3713 922 3314 415 
Q 2916 -91 2278 -91 
Q 1894 -91 1617 61 
Q 1341 213 1159 525 
z
M 3116 1747 
Q 3116 2381 2855 2742 
Q 2594 3103 2138 3103 
Q 1681 3103 1420 2742 
Q 1159 2381 1159 1747 
Q 1159 1113 1420 752 
Q 1681 391 2138 391 
Q 2594 391 2855 752 
Q 3116 1113 3116 1747 
z
" transform="scale(0.015625)"/>
       </defs>
       <use xlink:href="#DejaVuSans-b"/>
       <use xlink:href="#DejaVuSans-5a" transform="translate(39.015625 0)"/>
       <use xlink:href="#DejaVuSans-48" transform="translate(120.796875 0)"/>
       <use xlink:href="#DejaVuSans-3" transform="translate(182.328125 0)"/>
       <use xlink:href="#DejaVuSans-4e" transform="translate(214.109375 0)"/>
       <use xlink:href="#DejaVuSans-48" transform="translate(268.453125 0)"/>
       <use xlink:href="#DejaVuSans-53" transform="translate(329.984375 0)"/>
       <use xlink:href="#DejaVuSans-57" transform="translate(393.46875 0)"/>
       <use xlink:href="#DejaVuSans-3" transform="translate(432.671875 0)"/>
       <use xlink:href="#DejaVuSans-4c" transform="translate(464.453125 0)"/>
       <use xlink:href="#DejaVuSans-57" transform="translate(492.234375 0)"/>
       <use xlink:href="#DejaVuSans-c" transform="translate(531.4375 0)"/>
      </g>
     </g>
    </g>
   </g>
   <g id="matplotlib.axis_2">
    <g id="ytick_1">
     <g id="line2d_3"/>
     <g id="text_3">
      <!-- 0 -->
      <g style="fill: #898781" transform="translate(92.3775 423.806051) scale(0.1 -0.1)">
       <defs>
        <path id="DejaVuSans-13" d="M 2034 4250 
Q 1547 4250 1301 3770 
Q 1056 3291 1056 2328 
Q 1056 1369 1301 889 
Q 1547 409 2034 409 
Q 2525 409 2770 889 
Q 3016 1369 3016 2328 
Q 3016 3291 2770 3770 
Q 2525 4250 2034 4250 
z
M 2034 4750 
Q 2819 4750 3233 4129 
Q 3647 3509 3647 2328 
Q 3647 1150 3233 529 
Q 2819 -91 2034 -91 
Q 1250 -91 836 529 
Q 422 1150 422 2328 
Q 422 3509 836 4129 
Q 1250 4750 2034 4750 
z
" transform="scale(0.015625)"/>
       </defs>
       <use xlink:href="#DejaVuSans-13"/>
      </g>
     </g>
    </g>
    <g id="ytick_2">
     <g id="line2d_4"/>
     <g id="text_4">
      <!-- 5 -->
      <g style="fill: #898781" transform="translate(92.3775 353.439897) scale(0.1 -0.1)">
       <defs>
        <path id="DejaVuSans-18" d="M 691 4666 
L 3169 4666 
L 3169 4134 
L 1269 4134 
L 1269 2991 
Q 1406 3038 1543 3061 
Q 1681 3084 1819 3084 
Q 2600 3084 3056 2656 
Q 3513 2228 3513 1497 
Q 3513 744 3044 326 
Q 2575 -91 1722 -91 
Q 1428 -91 1123 -41 
Q 819 9 494 109 
L 494 744 
Q 775 591 1075 516 
Q 1375 441 1709 441 
Q 2250 441 2565 725 
Q 2881 1009 2881 1497 
Q 2881 1984 2565 2268 
Q 2250 2553 1709 2553 
Q 1456 2553 1204 2497 
Q 953 2441 691 2322 
L 691 4666 
z
" transform="scale(0.015625)"/>
       </defs>
       <use xlink:href="#DejaVuSans-18"/>
      </g>
     </g>
    </g>
    <g id="ytick_3">
     <g id="line2d_5"/>
     <g id="text_5">
      <!-- 10 -->
      <g style="fill: #898781" transform="translate(86.015 283.073743) scale(0.1 -0.1)">
       <defs>
        <path id="DejaVuSans-14" d="M 794 531 
L 1825 531 
L 1825 4091 
L 703 3866 
L 703 4441 
L 1819 4666 
L 2450 4666 
L 2450 531 
L 3481 531 
L 3481 0 
L 794 0 
L 794 531 
z
" transform="scale(0.015625)"/>
       </defs>
       <use xlink:href="#DejaVuSans-14"/>
       <use xlink:href="#DejaVuSans-13" transform="translate(63.625 0)"/>
      </g>
     </g>
    </g>
    <g id="ytick_4">
     <g id="line2d_6"/>
     <g id="text_6">
      <!-- 15 -->
      <g style="fill: #898781" transform="translate(86.015 212.707589) scale(0.1 -0.1)">
       <use xlink:href="#DejaVuSans-14"/>
       <use xlink:href="#DejaVuSans-18" transform="translate(63.625 0)"/>
      </g>
     </g>
    </g>
    <g id="ytick_5">
     <g id="line2d_7"/>
     <g id="text_7">
      <!-- 20 -->
      <g style="fill: #898781" transform="translate(86.015 142.341435) scale(0.1 -0.1)">
       <defs>
        <path id="DejaVuSans-15" d="M 1228 531 
L 3431 531 
L 3431 0 
L 469 0 
L 469 531 
Q 828 903 1448 1529 
Q 2069 2156 2228 2338 
Q 2531 2678 2651 2914 
Q 2772 3150 2772 3378 
Q 2772 3750 2511 3984 
Q 2250 4219 1831 4219 
Q 1534 4219 1204 4116 
Q 875 4013 500 3803 
L 500 4441 
Q 881 4594 1212 4672 
Q 1544 4750 1819 4750 
Q 2544 4750 2975 4387 
Q 3406 4025 3406 3419 
Q 3406 3131 3298 2873 
Q 3191 2616 2906 2266 
Q 2828 2175 2409 1742 
Q 1991 1309 1228 531 
z
" transform="scale(0.015625)"/>
       </defs>
       <use xlink:href="#DejaVuSans-15"/>
       <use xlink:href="#DejaVuSans-13" transform="translate(63.625 0)"/>
      </g>
     </g>
    </g>
    <g id="text_8">
     <!-- perturbations rejected, of 20 -->
     <g style="fill: #c3c2b7" transform="translate(79.372422 316.141785) rotate(-90) scale(0.11 -0.11)">
      <defs>
       <path id="DejaVuSans-55" d="M 2631 2963 
Q 2534 3019 2420 3045 
Q 2306 3072 2169 3072 
Q 1681 3072 1420 2755 
Q 1159 2438 1159 1844 
L 1159 0 
L 581 0 
L 581 3500 
L 1159 3500 
L 1159 2956 
Q 1341 3275 1631 3429 
Q 1922 3584 2338 3584 
Q 2397 3584 2469 3576 
Q 2541 3569 2628 3553 
L 2631 2963 
z
" transform="scale(0.015625)"/>
       <path id="DejaVuSans-58" d="M 544 1381 
L 544 3500 
L 1119 3500 
L 1119 1403 
Q 1119 906 1312 657 
Q 1506 409 1894 409 
Q 2359 409 2629 706 
Q 2900 1003 2900 1516 
L 2900 3500 
L 3475 3500 
L 3475 0 
L 2900 0 
L 2900 538 
Q 2691 219 2414 64 
Q 2138 -91 1772 -91 
Q 1169 -91 856 284 
Q 544 659 544 1381 
z
M 1991 3584 
L 1991 3584 
z
" transform="scale(0.015625)"/>
       <path id="DejaVuSans-45" d="M 3116 1747 
Q 3116 2381 2855 2742 
Q 2594 3103 2138 3103 
Q 1681 3103 1420 2742 
Q 1159 2381 1159 1747 
Q 1159 1113 1420 752 
Q 1681 391 2138 391 
Q 2594 391 2855 752 
Q 3116 1113 3116 1747 
z
M 1159 2969 
Q 1341 3281 1617 3432 
Q 1894 3584 2278 3584 
Q 2916 3584 3314 3078 
Q 3713 2572 3713 1747 
Q 3713 922 3314 415 
Q 2916 -91 2278 -91 
Q 1894 -91 1617 61 
Q 1341 213 1159 525 
L 1159 0 
L 581 0 
L 581 4863 
L 1159 4863 
L 1159 2969 
z
" transform="scale(0.015625)"/>
       <path id="DejaVuSans-44" d="M 2194 1759 
Q 1497 1759 1228 1600 
Q 959 1441 959 1056 
Q 959 750 1161 570 
Q 1363 391 1709 391 
Q 2188 391 2477 730 
Q 2766 1069 2766 1631 
L 2766 1759 
L 2194 1759 
z
M 3341 1997 
L 3341 0 
L 2766 0 
L 2766 531 
Q 2569 213 2275 61 
Q 1981 -91 1556 -91 
Q 1019 -91 701 211 
Q 384 513 384 1019 
Q 384 1609 779 1909 
Q 1175 2209 1959 2209 
L 2766 2209 
L 2766 2266 
Q 2766 2663 2505 2880 
Q 2244 3097 1772 3097 
Q 1472 3097 1187 3025 
Q 903 2953 641 2809 
L 641 3341 
Q 956 3463 1253 3523 
Q 1550 3584 1831 3584 
Q 2591 3584 2966 3190 
Q 3341 2797 3341 1997 
z
" transform="scale(0.015625)"/>
       <path id="DejaVuSans-51" d="M 3513 2113 
L 3513 0 
L 2938 0 
L 2938 2094 
Q 2938 2591 2744 2837 
Q 2550 3084 2163 3084 
Q 1697 3084 1428 2787 
Q 1159 2491 1159 1978 
L 1159 0 
L 581 0 
L 581 3500 
L 1159 3500 
L 1159 2956 
Q 1366 3272 1645 3428 
Q 1925 3584 2291 3584 
Q 2894 3584 3203 3211 
Q 3513 2838 3513 2113 
z
" transform="scale(0.015625)"/>
       <path id="DejaVuSans-56" d="M 2834 3397 
L 2834 2853 
Q 2591 2978 2328 3040 
Q 2066 3103 1784 3103 
Q 1356 3103 1142 2972 
Q 928 2841 928 2578 
Q 928 2378 1081 2264 
Q 1234 2150 1697 2047 
L 1894 2003 
Q 2506 1872 2764 1633 
Q 3022 1394 3022 966 
Q 3022 478 2636 193 
Q 2250 -91 1575 -91 
Q 1294 -91 989 -36 
Q 684 19 347 128 
L 347 722 
Q 666 556 975 473 
Q 1284 391 1588 391 
Q 1994 391 2212 530 
Q 2431 669 2431 922 
Q 2431 1156 2273 1281 
Q 2116 1406 1581 1522 
L 1381 1569 
Q 847 1681 609 1914 
Q 372 2147 372 2553 
Q 372 3047 722 3315 
Q 1072 3584 1716 3584 
Q 2034 3584 2315 3537 
Q 2597 3491 2834 3397 
z
" transform="scale(0.015625)"/>
       <path id="DejaVuSans-4d" d="M 603 3500 
L 1178 3500 
L 1178 -63 
Q 1178 -731 923 -1031 
Q 669 -1331 103 -1331 
L -116 -1331 
L -116 -844 
L 38 -844 
Q 366 -844 484 -692 
Q 603 -541 603 -63 
L 603 3500 
z
M 603 4863 
L 1178 4863 
L 1178 4134 
L 603 4134 
L 603 4863 
z
" transform="scale(0.015625)"/>
       <path id="DejaVuSans-46" d="M 3122 3366 
L 3122 2828 
Q 2878 2963 2633 3030 
Q 2388 3097 2138 3097 
Q 1578 3097 1268 2742 
Q 959 2388 959 1747 
Q 959 1106 1268 751 
Q 1578 397 2138 397 
Q 2388 397 2633 464 
Q 2878 531 3122 666 
L 3122 134 
Q 2881 22 2623 -34 
Q 2366 -91 2075 -91 
Q 1284 -91 818 406 
Q 353 903 353 1747 
Q 353 2603 823 3093 
Q 1294 3584 2113 3584 
Q 2378 3584 2631 3529 
Q 2884 3475 3122 3366 
z
" transform="scale(0.015625)"/>
       <path id="DejaVuSans-f" d="M 750 794 
L 1409 794 
L 1409 256 
L 897 -744 
L 494 -744 
L 750 256 
L 750 794 
z
" transform="scale(0.015625)"/>
       <path id="DejaVuSans-49" d="M 2375 4863 
L 2375 4384 
L 1825 4384 
Q 1516 4384 1395 4259 
Q 1275 4134 1275 3809 
L 1275 3500 
L 2222 3500 
L 2222 3053 
L 1275 3053 
L 1275 0 
L 697 0 
L 697 3053 
L 147 3053 
L 147 3500 
L 697 3500 
L 697 3744 
Q 697 4328 969 4595 
Q 1241 4863 1831 4863 
L 2375 4863 
z
" transform="scale(0.015625)"/>
      </defs>
      <use xlink:href="#DejaVuSans-53"/>
      <use xlink:href="#DejaVuSans-48" transform="translate(63.484375 0)"/>
      <use xlink:href="#DejaVuSans-55" transform="translate(125.015625 0)"/>
      <use xlink:href="#DejaVuSans-57" transform="translate(166.125 0)"/>
      <use xlink:href="#DejaVuSans-58" transform="translate(205.328125 0)"/>
      <use xlink:href="#DejaVuSans-55" transform="translate(268.703125 0)"/>
      <use xlink:href="#DejaVuSans-45" transform="translate(309.8125 0)"/>
      <use xlink:href="#DejaVuSans-44" transform="translate(373.296875 0)"/>
      <use xlink:href="#DejaVuSans-57" transform="translate(434.578125 0)"/>
      <use xlink:href="#DejaVuSans-4c" transform="translate(473.78125 0)"/>
      <use xlink:href="#DejaVuSans-52" transform="translate(501.5625 0)"/>
      <use xlink:href="#DejaVuSans-51" transform="translate(562.75 0)"/>
      <use xlink:href="#DejaVuSans-56" transform="translate(626.125 0)"/>
      <use xlink:href="#DejaVuSans-3" transform="translate(678.21875 0)"/>
      <use xlink:href="#DejaVuSans-55" transform="translate(710 0)"/>
      <use xlink:href="#DejaVuSans-48" transform="translate(748.90625 0)"/>
      <use xlink:href="#DejaVuSans-4d" transform="translate(810.4375 0)"/>
      <use xlink:href="#DejaVuSans-48" transform="translate(838.21875 0)"/>
      <use xlink:href="#DejaVuSans-46" transform="translate(899.75 0)"/>
      <use xlink:href="#DejaVuSans-57" transform="translate(954.734375 0)"/>
      <use xlink:href="#DejaVuSans-48" transform="translate(993.9375 0)"/>
      <use xlink:href="#DejaVuSans-47" transform="translate(1055.46875 0)"/>
      <use xlink:href="#DejaVuSans-f" transform="translate(1118.953125 0)"/>
      <use xlink:href="#DejaVuSans-3" transform="translate(1150.734375 0)"/>
      <use xlink:href="#DejaVuSans-52" transform="translate(1182.515625 0)"/>
      <use xlink:href="#DejaVuSans-49" transform="translate(1243.703125 0)"/>
      <use xlink:href="#DejaVuSans-3" transform="translate(1278.90625 0)"/>
      <use xlink:href="#DejaVuSans-15" transform="translate(1310.6875 0)"/>
      <use xlink:href="#DejaVuSans-13" transform="translate(1374.3125 0)"/>
     </g>
    </g>
   </g>
   <g id="patch_3">
    <path d="M 102.24 420.007223 
L 102.24 54.103223 
" style="fill: none; stroke: #383835; stroke-width: 0.8; stroke-linejoin: miter; stroke-linecap: square"/>
   </g>
   <g id="patch_4">
    <path d="M 102.24 420.007223 
L 716.04 420.007223 
" style="fill: none; stroke: #383835; stroke-width: 0.8; stroke-linejoin: miter; stroke-linecap: square"/>
   </g>
   <g id="patch_5">
    <path d="M 130.14 420.007223 
L 243.068571 420.007223 
L 243.068571 222.981992 
L 130.14 222.981992 
z
" clip-path="url(#p399ef5e2a2)" style="fill: #3987e5; stroke: #1a1a19; stroke-width: 1.5; stroke-linejoin: miter"/>
   </g>
   <g id="patch_6">
    <path d="M 462.282857 420.007223 
L 575.211429 420.007223 
L 575.211429 251.128453 
L 462.282857 251.128453 
z
" clip-path="url(#p399ef5e2a2)" style="fill: #3987e5; stroke: #1a1a19; stroke-width: 1.5; stroke-linejoin: miter"/>
   </g>
   <g id="patch_7">
    <path d="M 243.068571 420.007223 
L 355.997143 420.007223 
L 355.997143 228.690094 
L 243.068571 228.690094 
z
" clip-path="url(#p399ef5e2a2)" style="fill: #3a3a37; stroke: #1a1a19; stroke-width: 1.5; stroke-linejoin: miter"/>
   </g>
   <g id="patch_8">
    <path d="M 575.211429 420.007223 
L 688.14 420.007223 
L 688.14 363.900066 
L 575.211429 363.900066 
z
" clip-path="url(#p399ef5e2a2)" style="fill: #3a3a37; stroke: #1a1a19; stroke-width: 1.5; stroke-linejoin: miter"/>
   </g>
   <g id="text_9">
    <!-- We tested our own headline. Most of it was bought by effect size. -->
    <g style="fill: #ffffff" transform="translate(102.24 20.099121) scale(0.15 -0.15)">
     <defs>
      <path id="DejaVuSans-Bold-3a" d="M 191 4666 
L 1344 4666 
L 2150 1275 
L 2950 4666 
L 4109 4666 
L 4909 1275 
L 5716 4666 
L 6859 4666 
L 5759 0 
L 4372 0 
L 3525 3547 
L 2688 0 
L 1300 0 
L 191 4666 
z
" transform="scale(0.015625)"/>
      <path id="DejaVuSans-Bold-48" d="M 4031 1759 
L 4031 1441 
L 1416 1441 
Q 1456 1047 1700 850 
Q 1944 653 2381 653 
Q 2734 653 3104 758 
Q 3475 863 3866 1075 
L 3866 213 
Q 3469 63 3072 -14 
Q 2675 -91 2278 -91 
Q 1328 -91 801 392 
Q 275 875 275 1747 
Q 275 2603 792 3093 
Q 1309 3584 2216 3584 
Q 3041 3584 3536 3087 
Q 4031 2591 4031 1759 
z
M 2881 2131 
Q 2881 2450 2695 2645 
Q 2509 2841 2209 2841 
Q 1884 2841 1681 2658 
Q 1478 2475 1428 2131 
L 2881 2131 
z
" transform="scale(0.015625)"/>
      <path id="DejaVuSans-Bold-3" transform="scale(0.015625)"/>
      <path id="DejaVuSans-Bold-57" d="M 1759 4494 
L 1759 3500 
L 2913 3500 
L 2913 2700 
L 1759 2700 
L 1759 1216 
Q 1759 972 1856 886 
Q 1953 800 2241 800 
L 2816 800 
L 2816 0 
L 1856 0 
Q 1194 0 917 276 
Q 641 553 641 1216 
L 641 2700 
L 84 2700 
L 84 3500 
L 641 3500 
L 641 4494 
L 1759 4494 
z
" transform="scale(0.015625)"/>
      <path id="DejaVuSans-Bold-56" d="M 3272 3391 
L 3272 2541 
Q 2913 2691 2578 2766 
Q 2244 2841 1947 2841 
Q 1628 2841 1473 2761 
Q 1319 2681 1319 2516 
Q 1319 2381 1436 2309 
Q 1553 2238 1856 2203 
L 2053 2175 
Q 2913 2066 3209 1816 
Q 3506 1566 3506 1031 
Q 3506 472 3093 190 
Q 2681 -91 1863 -91 
Q 1516 -91 1145 -36 
Q 775 19 384 128 
L 384 978 
Q 719 816 1070 734 
Q 1422 653 1784 653 
Q 2113 653 2278 743 
Q 2444 834 2444 1013 
Q 2444 1163 2330 1236 
Q 2216 1309 1875 1350 
L 1678 1375 
Q 931 1469 631 1722 
Q 331 1975 331 2491 
Q 331 3047 712 3315 
Q 1094 3584 1881 3584 
Q 2191 3584 2531 3537 
Q 2872 3491 3272 3391 
z
" transform="scale(0.015625)"/>
      <path id="DejaVuSans-Bold-47" d="M 2919 2988 
L 2919 4863 
L 4044 4863 
L 4044 0 
L 2919 0 
L 2919 506 
Q 2688 197 2409 53 
Q 2131 -91 1766 -91 
Q 1119 -91 703 423 
Q 288 938 288 1747 
Q 288 2556 703 3070 
Q 1119 3584 1766 3584 
Q 2128 3584 2408 3439 
Q 2688 3294 2919 2988 
z
M 2181 722 
Q 2541 722 2730 984 
Q 2919 1247 2919 1747 
Q 2919 2247 2730 2509 
Q 2541 2772 2181 2772 
Q 1825 2772 1636 2509 
Q 1447 2247 1447 1747 
Q 1447 1247 1636 984 
Q 1825 722 2181 722 
z
" transform="scale(0.015625)"/>
      <path id="DejaVuSans-Bold-52" d="M 2203 2784 
Q 1831 2784 1636 2517 
Q 1441 2250 1441 1747 
Q 1441 1244 1636 976 
Q 1831 709 2203 709 
Q 2569 709 2762 976 
Q 2956 1244 2956 1747 
Q 2956 2250 2762 2517 
Q 2569 2784 2203 2784 
z
M 2203 3584 
Q 3106 3584 3614 3096 
Q 4122 2609 4122 1747 
Q 4122 884 3614 396 
Q 3106 -91 2203 -91 
Q 1297 -91 786 396 
Q 275 884 275 1747 
Q 275 2609 786 3096 
Q 1297 3584 2203 3584 
z
" transform="scale(0.015625)"/>
      <path id="DejaVuSans-Bold-58" d="M 500 1363 
L 500 3500 
L 1625 3500 
L 1625 3150 
Q 1625 2866 1622 2436 
Q 1619 2006 1619 1863 
Q 1619 1441 1641 1255 
Q 1663 1069 1716 984 
Q 1784 875 1895 815 
Q 2006 756 2150 756 
Q 2500 756 2700 1025 
Q 2900 1294 2900 1772 
L 2900 3500 
L 4019 3500 
L 4019 0 
L 2900 0 
L 2900 506 
Q 2647 200 2364 54 
Q 2081 -91 1741 -91 
Q 1134 -91 817 281 
Q 500 653 500 1363 
z
" transform="scale(0.015625)"/>
      <path id="DejaVuSans-Bold-55" d="M 3138 2547 
Q 2991 2616 2845 2648 
Q 2700 2681 2553 2681 
Q 2122 2681 1889 2404 
Q 1656 2128 1656 1613 
L 1656 0 
L 538 0 
L 538 3500 
L 1656 3500 
L 1656 2925 
Q 1872 3269 2151 3426 
Q 2431 3584 2822 3584 
Q 2878 3584 2943 3579 
Q 3009 3575 3134 3559 
L 3138 2547 
z
" transform="scale(0.015625)"/>
      <path id="DejaVuSans-Bold-5a" d="M 225 3500 
L 1313 3500 
L 1900 1088 
L 2491 3500 
L 3425 3500 
L 4013 1113 
L 4603 3500 
L 5691 3500 
L 4769 0 
L 3547 0 
L 2956 2406 
L 2369 0 
L 1147 0 
L 225 3500 
z
" transform="scale(0.015625)"/>
      <path id="DejaVuSans-Bold-51" d="M 4056 2131 
L 4056 0 
L 2931 0 
L 2931 347 
L 2931 1631 
Q 2931 2084 2911 2256 
Q 2891 2428 2841 2509 
Q 2775 2619 2662 2680 
Q 2550 2741 2406 2741 
Q 2056 2741 1856 2470 
Q 1656 2200 1656 1722 
L 1656 0 
L 538 0 
L 538 3500 
L 1656 3500 
L 1656 2988 
Q 1909 3294 2193 3439 
Q 2478 3584 2822 3584 
Q 3428 3584 3742 3212 
Q 4056 2841 4056 2131 
z
" transform="scale(0.015625)"/>
      <path id="DejaVuSans-Bold-4b" d="M 4056 2131 
L 4056 0 
L 2931 0 
L 2931 347 
L 2931 1625 
Q 2931 2084 2911 2256 
Q 2891 2428 2841 2509 
Q 2775 2619 2662 2680 
Q 2550 2741 2406 2741 
Q 2056 2741 1856 2470 
Q 1656 2200 1656 1722 
L 1656 0 
L 538 0 
L 538 4863 
L 1656 4863 
L 1656 2988 
Q 1909 3294 2193 3439 
Q 2478 3584 2822 3584 
Q 3428 3584 3742 3212 
Q 4056 2841 4056 2131 
z
" transform="scale(0.015625)"/>
      <path id="DejaVuSans-Bold-44" d="M 2106 1575 
Q 1756 1575 1579 1456 
Q 1403 1338 1403 1106 
Q 1403 894 1545 773 
Q 1688 653 1941 653 
Q 2256 653 2472 879 
Q 2688 1106 2688 1447 
L 2688 1575 
L 2106 1575 
z
M 3816 1997 
L 3816 0 
L 2688 0 
L 2688 519 
Q 2463 200 2181 54 
Q 1900 -91 1497 -91 
Q 953 -91 614 226 
Q 275 544 275 1050 
Q 275 1666 698 1953 
Q 1122 2241 2028 2241 
L 2688 2241 
L 2688 2328 
Q 2688 2594 2478 2717 
Q 2269 2841 1825 2841 
Q 1466 2841 1156 2769 
Q 847 2697 581 2553 
L 581 3406 
Q 941 3494 1303 3539 
Q 1666 3584 2028 3584 
Q 2975 3584 3395 3211 
Q 3816 2838 3816 1997 
z
" transform="scale(0.015625)"/>
      <path id="DejaVuSans-Bold-4f" d="M 538 4863 
L 1656 4863 
L 1656 0 
L 538 0 
L 538 4863 
z
" transform="scale(0.015625)"/>
      <path id="DejaVuSans-Bold-4c" d="M 538 3500 
L 1656 3500 
L 1656 0 
L 538 0 
L 538 3500 
z
M 538 4863 
L 1656 4863 
L 1656 3950 
L 538 3950 
L 538 4863 
z
" transform="scale(0.015625)"/>
      <path id="DejaVuSans-Bold-11" d="M 653 1209 
L 1778 1209 
L 1778 0 
L 653 0 
L 653 1209 
z
" transform="scale(0.015625)"/>
      <path id="DejaVuSans-Bold-30" d="M 588 4666 
L 2119 4666 
L 3181 2169 
L 4250 4666 
L 5778 4666 
L 5778 0 
L 4641 0 
L 4641 3413 
L 3566 897 
L 2803 897 
L 1728 3413 
L 1728 0 
L 588 0 
L 588 4666 
z
" transform="scale(0.015625)"/>
      <path id="DejaVuSans-Bold-49" d="M 2841 4863 
L 2841 4128 
L 2222 4128 
Q 1984 4128 1890 4042 
Q 1797 3956 1797 3744 
L 1797 3500 
L 2753 3500 
L 2753 2700 
L 1797 2700 
L 1797 0 
L 678 0 
L 678 2700 
L 122 2700 
L 122 3500 
L 678 3500 
L 678 3744 
Q 678 4316 997 4589 
Q 1316 4863 1984 4863 
L 2841 4863 
z
" transform="scale(0.015625)"/>
      <path id="DejaVuSans-Bold-45" d="M 2400 722 
Q 2759 722 2948 984 
Q 3138 1247 3138 1747 
Q 3138 2247 2948 2509 
Q 2759 2772 2400 2772 
Q 2041 2772 1848 2508 
Q 1656 2244 1656 1747 
Q 1656 1250 1848 986 
Q 2041 722 2400 722 
z
M 1656 2988 
Q 1888 3294 2169 3439 
Q 2450 3584 2816 3584 
Q 3463 3584 3878 3070 
Q 4294 2556 4294 1747 
Q 4294 938 3878 423 
Q 3463 -91 2816 -91 
Q 2450 -91 2169 54 
Q 1888 200 1656 506 
L 1656 0 
L 538 0 
L 538 4863 
L 1656 4863 
L 1656 2988 
z
" transform="scale(0.015625)"/>
      <path id="DejaVuSans-Bold-4a" d="M 2919 594 
Q 2688 288 2409 144 
Q 2131 0 1766 0 
Q 1125 0 706 504 
Q 288 1009 288 1791 
Q 288 2575 706 3076 
Q 1125 3578 1766 3578 
Q 2131 3578 2409 3434 
Q 2688 3291 2919 2981 
L 2919 3500 
L 4044 3500 
L 4044 353 
Q 4044 -491 3511 -936 
Q 2978 -1381 1966 -1381 
Q 1638 -1381 1331 -1331 
Q 1025 -1281 716 -1178 
L 716 -306 
Q 1009 -475 1290 -558 
Q 1572 -641 1856 -641 
Q 2406 -641 2662 -400 
Q 2919 -159 2919 353 
L 2919 594 
z
M 2181 2772 
Q 1834 2772 1640 2515 
Q 1447 2259 1447 1791 
Q 1447 1309 1634 1061 
Q 1822 813 2181 813 
Q 2531 813 2725 1069 
Q 2919 1325 2919 1791 
Q 2919 2259 2725 2515 
Q 2531 2772 2181 2772 
z
" transform="scale(0.015625)"/>
      <path id="DejaVuSans-Bold-5c" d="M 78 3500 
L 1197 3500 
L 2138 1125 
L 2938 3500 
L 4056 3500 
L 2584 -331 
Q 2363 -916 2067 -1148 
Q 1772 -1381 1288 -1381 
L 641 -1381 
L 641 -647 
L 991 -647 
Q 1275 -647 1404 -556 
Q 1534 -466 1606 -231 
L 1638 -134 
L 78 3500 
z
" transform="scale(0.015625)"/>
      <path id="DejaVuSans-Bold-13aa" d="M 2841 4863 
L 2841 4128 
L 2222 4128 
Q 1984 4128 1891 4044 
Q 1797 3956 1797 3744 
L 1797 3500 
L 3078 3500 
L 3078 3744 
Q 3078 4316 3397 4588 
Q 3716 4863 4384 4863 
L 5241 4863 
L 5241 4128 
L 4622 4128 
Q 4384 4128 4291 4044 
Q 4197 3956 4197 3744 
L 4197 3500 
L 5153 3500 
L 5153 2700 
L 4197 2700 
L 4197 0 
L 3078 0 
L 3078 2700 
L 1797 2700 
L 1797 0 
L 678 0 
L 678 2700 
L 122 2700 
L 122 3500 
L 678 3500 
L 678 3744 
Q 678 4316 997 4588 
Q 1316 4863 1984 4863 
L 2841 4863 
z
" transform="scale(0.015625)"/>
      <path id="DejaVuSans-Bold-46" d="M 3366 3391 
L 3366 2478 
Q 3138 2634 2908 2709 
Q 2678 2784 2431 2784 
Q 1963 2784 1702 2511 
Q 1441 2238 1441 1747 
Q 1441 1256 1702 982 
Q 1963 709 2431 709 
Q 2694 709 2930 787 
Q 3166 866 3366 1019 
L 3366 103 
Q 3103 6 2833 -42 
Q 2563 -91 2291 -91 
Q 1344 -91 809 395 
Q 275 881 275 1747 
Q 275 2613 809 3098 
Q 1344 3584 2291 3584 
Q 2566 3584 2833 3536 
Q 3100 3488 3366 3391 
z
" transform="scale(0.015625)"/>
      <path id="DejaVuSans-Bold-5d" d="M 366 3500 
L 3419 3500 
L 3419 2719 
L 1575 800 
L 3419 800 
L 3419 0 
L 288 0 
L 288 781 
L 2131 2700 
L 366 2700 
L 366 3500 
z
" transform="scale(0.015625)"/>
     </defs>
     <use xlink:href="#DejaVuSans-Bold-3a"/>
     <use xlink:href="#DejaVuSans-Bold-48" transform="translate(106.734375 0)"/>
     <use xlink:href="#DejaVuSans-Bold-3" transform="translate(174.5625 0)"/>
     <use xlink:href="#DejaVuSans-Bold-57" transform="translate(209.375 0)"/>
     <use xlink:href="#DejaVuSans-Bold-48" transform="translate(257.171875 0)"/>
     <use xlink:href="#DejaVuSans-Bold-56" transform="translate(325 0)"/>
     <use xlink:href="#DejaVuSans-Bold-57" transform="translate(384.515625 0)"/>
     <use xlink:href="#DejaVuSans-Bold-48" transform="translate(432.3125 0)"/>
     <use xlink:href="#DejaVuSans-Bold-47" transform="translate(500.140625 0)"/>
     <use xlink:href="#DejaVuSans-Bold-3" transform="translate(571.71875 0)"/>
     <use xlink:href="#DejaVuSans-Bold-52" transform="translate(606.53125 0)"/>
     <use xlink:href="#DejaVuSans-Bold-58" transform="translate(675.234375 0)"/>
     <use xlink:href="#DejaVuSans-Bold-55" transform="translate(746.421875 0)"/>
     <use xlink:href="#DejaVuSans-Bold-3" transform="translate(795.734375 0)"/>
     <use xlink:href="#DejaVuSans-Bold-52" transform="translate(830.546875 0)"/>
     <use xlink:href="#DejaVuSans-Bold-5a" transform="translate(899.25 0)"/>
     <use xlink:href="#DejaVuSans-Bold-51" transform="translate(991.640625 0)"/>
     <use xlink:href="#DejaVuSans-Bold-3" transform="translate(1062.828125 0)"/>
     <use xlink:href="#DejaVuSans-Bold-4b" transform="translate(1097.640625 0)"/>
     <use xlink:href="#DejaVuSans-Bold-48" transform="translate(1168.828125 0)"/>
     <use xlink:href="#DejaVuSans-Bold-44" transform="translate(1236.65625 0)"/>
     <use xlink:href="#DejaVuSans-Bold-47" transform="translate(1304.140625 0)"/>
     <use xlink:href="#DejaVuSans-Bold-4f" transform="translate(1375.71875 0)"/>
     <use xlink:href="#DejaVuSans-Bold-4c" transform="translate(1410 0)"/>
     <use xlink:href="#DejaVuSans-Bold-51" transform="translate(1444.28125 0)"/>
     <use xlink:href="#DejaVuSans-Bold-48" transform="translate(1515.46875 0)"/>
     <use xlink:href="#DejaVuSans-Bold-11" transform="translate(1583.296875 0)"/>
     <use xlink:href="#DejaVuSans-Bold-3" transform="translate(1621.28125 0)"/>
     <use xlink:href="#DejaVuSans-Bold-30" transform="translate(1656.09375 0)"/>
     <use xlink:href="#DejaVuSans-Bold-52" transform="translate(1755.609375 0)"/>
     <use xlink:href="#DejaVuSans-Bold-56" transform="translate(1824.3125 0)"/>
     <use xlink:href="#DejaVuSans-Bold-57" transform="translate(1883.828125 0)"/>
     <use xlink:href="#DejaVuSans-Bold-3" transform="translate(1931.625 0)"/>
     <use xlink:href="#DejaVuSans-Bold-52" transform="translate(1966.4375 0)"/>
     <use xlink:href="#DejaVuSans-Bold-49" transform="translate(2035.140625 0)"/>
     <use xlink:href="#DejaVuSans-Bold-3" transform="translate(2078.640625 0)"/>
     <use xlink:href="#DejaVuSans-Bold-4c" transform="translate(2113.453125 0)"/>
     <use xlink:href="#DejaVuSans-Bold-57" transform="translate(2147.734375 0)"/>
     <use xlink:href="#DejaVuSans-Bold-3" transform="translate(2195.53125 0)"/>
     <use xlink:href="#DejaVuSans-Bold-5a" transform="translate(2230.34375 0)"/>
     <use xlink:href="#DejaVuSans-Bold-44" transform="translate(2322.734375 0)"/>
     <use xlink:href="#DejaVuSans-Bold-56" transform="translate(2390.21875 0)"/>
     <use xlink:href="#DejaVuSans-Bold-3" transform="translate(2449.734375 0)"/>
     <use xlink:href="#DejaVuSans-Bold-45" transform="translate(2484.546875 0)"/>
     <use xlink:href="#DejaVuSans-Bold-52" transform="translate(2556.125 0)"/>
     <use xlink:href="#DejaVuSans-Bold-58" transform="translate(2624.828125 0)"/>
     <use xlink:href="#DejaVuSans-Bold-4a" transform="translate(2696.015625 0)"/>
     <use xlink:href="#DejaVuSans-Bold-4b" transform="translate(2767.59375 0)"/>
     <use xlink:href="#DejaVuSans-Bold-57" transform="translate(2838.78125 0)"/>
     <use xlink:href="#DejaVuSans-Bold-3" transform="translate(2886.578125 0)"/>
     <use xlink:href="#DejaVuSans-Bold-45" transform="translate(2921.390625 0)"/>
     <use xlink:href="#DejaVuSans-Bold-5c" transform="translate(2992.96875 0)"/>
     <use xlink:href="#DejaVuSans-Bold-3" transform="translate(3058.15625 0)"/>
     <use xlink:href="#DejaVuSans-Bold-48" transform="translate(3092.96875 0)"/>
     <use xlink:href="#DejaVuSans-Bold-13aa" transform="translate(3160.796875 0)"/>
     <use xlink:href="#DejaVuSans-Bold-48" transform="translate(3241.796875 0)"/>
     <use xlink:href="#DejaVuSans-Bold-46" transform="translate(3309.625 0)"/>
     <use xlink:href="#DejaVuSans-Bold-57" transform="translate(3368.90625 0)"/>
     <use xlink:href="#DejaVuSans-Bold-3" transform="translate(3416.703125 0)"/>
     <use xlink:href="#DejaVuSans-Bold-56" transform="translate(3451.515625 0)"/>
     <use xlink:href="#DejaVuSans-Bold-4c" transform="translate(3511.03125 0)"/>
     <use xlink:href="#DejaVuSans-Bold-5d" transform="translate(3545.3125 0)"/>
     <use xlink:href="#DejaVuSans-Bold-48" transform="translate(3603.515625 0)"/>
     <use xlink:href="#DejaVuSans-Bold-11" transform="translate(3671.34375 0)"/>
    </g>
    <!-- One axis was not. -->
    <g style="fill: #ffffff" transform="translate(102.24 38.103223) scale(0.15 -0.15)">
     <defs>
      <path id="DejaVuSans-Bold-32" d="M 2719 3878 
Q 2169 3878 1866 3472 
Q 1563 3066 1563 2328 
Q 1563 1594 1866 1187 
Q 2169 781 2719 781 
Q 3272 781 3575 1187 
Q 3878 1594 3878 2328 
Q 3878 3066 3575 3472 
Q 3272 3878 2719 3878 
z
M 2719 4750 
Q 3844 4750 4481 4106 
Q 5119 3463 5119 2328 
Q 5119 1197 4481 553 
Q 3844 -91 2719 -91 
Q 1597 -91 958 553 
Q 319 1197 319 2328 
Q 319 3463 958 4106 
Q 1597 4750 2719 4750 
z
" transform="scale(0.015625)"/>
      <path id="DejaVuSans-Bold-5b" d="M 1422 1791 
L 159 3500 
L 1344 3500 
L 2059 2463 
L 2784 3500 
L 3969 3500 
L 2706 1797 
L 4031 0 
L 2847 0 
L 2059 1106 
L 1281 0 
L 97 0 
L 1422 1791 
z
" transform="scale(0.015625)"/>
     </defs>
     <use xlink:href="#DejaVuSans-Bold-32"/>
     <use xlink:href="#DejaVuSans-Bold-51" transform="translate(85.015625 0)"/>
     <use xlink:href="#DejaVuSans-Bold-48" transform="translate(156.203125 0)"/>
     <use xlink:href="#DejaVuSans-Bold-3" transform="translate(224.03125 0)"/>
     <use xlink:href="#DejaVuSans-Bold-44" transform="translate(258.84375 0)"/>
     <use xlink:href="#DejaVuSans-Bold-5b" transform="translate(326.328125 0)"/>
     <use xlink:href="#DejaVuSans-Bold-4c" transform="translate(390.828125 0)"/>
     <use xlink:href="#DejaVuSans-Bold-56" transform="translate(425.109375 0)"/>
     <use xlink:href="#DejaVuSans-Bold-3" transform="translate(484.625 0)"/>
     <use xlink:href="#DejaVuSans-Bold-5a" transform="translate(519.4375 0)"/>
     <use xlink:href="#DejaVuSans-Bold-44" transform="translate(611.828125 0)"/>
     <use xlink:href="#DejaVuSans-Bold-56" transform="translate(679.3125 0)"/>
     <use xlink:href="#DejaVuSans-Bold-3" transform="translate(738.828125 0)"/>
     <use xlink:href="#DejaVuSans-Bold-51" transform="translate(773.640625 0)"/>
     <use xlink:href="#DejaVuSans-Bold-52" transform="translate(844.828125 0)"/>
     <use xlink:href="#DejaVuSans-Bold-57" transform="translate(913.53125 0)"/>
     <use xlink:href="#DejaVuSans-Bold-11" transform="translate(961.328125 0)"/>
    </g>
   </g>
   <g id="text_10">
    <!-- 14 -->
    <g style="fill: #ffffff" transform="translate(178.254911 215.173549) scale(0.12 -0.12)">
     <defs>
      <path id="DejaVuSans-Bold-14" d="M 750 831 
L 1813 831 
L 1813 3847 
L 722 3622 
L 722 4441 
L 1806 4666 
L 2950 4666 
L 2950 831 
L 4013 831 
L 4013 0 
L 750 0 
L 750 831 
z
" transform="scale(0.015625)"/>
      <path id="DejaVuSans-Bold-17" d="M 2356 3675 
L 1038 1722 
L 2356 1722 
L 2356 3675 
z
M 2156 4666 
L 3494 4666 
L 3494 1722 
L 4159 1722 
L 4159 850 
L 3494 850 
L 3494 0 
L 2356 0 
L 2356 850 
L 288 850 
L 288 1881 
L 2156 4666 
z
" transform="scale(0.015625)"/>
     </defs>
     <use xlink:href="#DejaVuSans-Bold-14"/>
     <use xlink:href="#DejaVuSans-Bold-17" transform="translate(69.578125 0)"/>
    </g>
   </g>
   <g id="text_11">
    <!-- 13.6 -->
    <g style="fill: #898781" transform="translate(286.173482 220.881651) scale(0.12 -0.12)">
     <defs>
      <path id="DejaVuSans-16" d="M 2597 2516 
Q 3050 2419 3304 2112 
Q 3559 1806 3559 1356 
Q 3559 666 3084 287 
Q 2609 -91 1734 -91 
Q 1441 -91 1130 -33 
Q 819 25 488 141 
L 488 750 
Q 750 597 1062 519 
Q 1375 441 1716 441 
Q 2309 441 2620 675 
Q 2931 909 2931 1356 
Q 2931 1769 2642 2001 
Q 2353 2234 1838 2234 
L 1294 2234 
L 1294 2753 
L 1863 2753 
Q 2328 2753 2575 2939 
Q 2822 3125 2822 3475 
Q 2822 3834 2567 4026 
Q 2313 4219 1838 4219 
Q 1578 4219 1281 4162 
Q 984 4106 628 3988 
L 628 4550 
Q 988 4650 1302 4700 
Q 1616 4750 1894 4750 
Q 2613 4750 3031 4423 
Q 3450 4097 3450 3541 
Q 3450 3153 3228 2886 
Q 3006 2619 2597 2516 
z
" transform="scale(0.015625)"/>
      <path id="DejaVuSans-11" d="M 684 794 
L 1344 794 
L 1344 0 
L 684 0 
L 684 794 
z
" transform="scale(0.015625)"/>
      <path id="DejaVuSans-19" d="M 2113 2584 
Q 1688 2584 1439 2293 
Q 1191 2003 1191 1497 
Q 1191 994 1439 701 
Q 1688 409 2113 409 
Q 2538 409 2786 701 
Q 3034 994 3034 1497 
Q 3034 2003 2786 2293 
Q 2538 2584 2113 2584 
z
M 3366 4563 
L 3366 3988 
Q 3128 4100 2886 4159 
Q 2644 4219 2406 4219 
Q 1781 4219 1451 3797 
Q 1122 3375 1075 2522 
Q 1259 2794 1537 2939 
Q 1816 3084 2150 3084 
Q 2853 3084 3261 2657 
Q 3669 2231 3669 1497 
Q 3669 778 3244 343 
Q 2819 -91 2113 -91 
Q 1303 -91 875 529 
Q 447 1150 447 2328 
Q 447 3434 972 4092 
Q 1497 4750 2381 4750 
Q 2619 4750 2861 4703 
Q 3103 4656 3366 4563 
z
" transform="scale(0.015625)"/>
     </defs>
     <use xlink:href="#DejaVuSans-14"/>
     <use xlink:href="#DejaVuSans-16" transform="translate(63.625 0)"/>
     <use xlink:href="#DejaVuSans-11" transform="translate(127.25 0)"/>
     <use xlink:href="#DejaVuSans-19" transform="translate(159.03125 0)"/>
    </g>
   </g>
   <g id="text_12">
    <!-- P = 0.54 -->
    <g style="fill: #898781" transform="translate(221.552946 132.441036) scale(0.1 -0.1)">
     <defs>
      <path id="DejaVuSans-33" d="M 1259 4147 
L 1259 2394 
L 2053 2394 
Q 2494 2394 2734 2622 
Q 2975 2850 2975 3272 
Q 2975 3691 2734 3919 
Q 2494 4147 2053 4147 
L 1259 4147 
z
M 628 4666 
L 2053 4666 
Q 2838 4666 3239 4311 
Q 3641 3956 3641 3272 
Q 3641 2581 3239 2228 
Q 2838 1875 2053 1875 
L 1259 1875 
L 1259 0 
L 628 0 
L 628 4666 
z
" transform="scale(0.015625)"/>
      <path id="DejaVuSans-20" d="M 678 2906 
L 4684 2906 
L 4684 2381 
L 678 2381 
L 678 2906 
z
M 678 1631 
L 4684 1631 
L 4684 1100 
L 678 1100 
L 678 1631 
z
" transform="scale(0.015625)"/>
      <path id="DejaVuSans-17" d="M 2419 4116 
L 825 1625 
L 2419 1625 
L 2419 4116 
z
M 2253 4666 
L 3047 4666 
L 3047 1625 
L 3713 1625 
L 3713 1100 
L 3047 1100 
L 3047 0 
L 2419 0 
L 2419 1100 
L 313 1100 
L 313 1709 
L 2253 4666 
z
" transform="scale(0.015625)"/>
     </defs>
     <use xlink:href="#DejaVuSans-33"/>
     <use xlink:href="#DejaVuSans-3" transform="translate(60.296875 0)"/>
     <use xlink:href="#DejaVuSans-20" transform="translate(92.078125 0)"/>
     <use xlink:href="#DejaVuSans-3" transform="translate(175.875 0)"/>
     <use xlink:href="#DejaVuSans-13" transform="translate(207.65625 0)"/>
     <use xlink:href="#DejaVuSans-11" transform="translate(271.28125 0)"/>
     <use xlink:href="#DejaVuSans-18" transform="translate(303.0625 0)"/>
     <use xlink:href="#DejaVuSans-17" transform="translate(366.6875 0)"/>
    </g>
    <!-- not specific -->
    <g style="fill: #898781" transform="translate(214.39904 145.560567) scale(0.1 -0.1)">
     <defs>
      <path id="DejaVuSans-13af" d="M 3431 3500 
L 3431 0 
L 2853 0 
L 2853 3053 
L 1275 3053 
L 1275 0 
L 697 0 
L 697 3053 
L 147 3053 
L 147 3500 
L 697 3500 
L 697 3744 
Q 697 4316 967 4589 
Q 1238 4863 1797 4863 
L 2375 4863 
L 2375 4384 
L 1825 4384 
Q 1516 4384 1395 4259 
Q 1275 4134 1275 3809 
L 1275 3500 
L 3431 3500 
z
M 2853 4856 
L 3431 4856 
L 3431 4128 
L 2853 4128 
L 2853 4856 
z
" transform="scale(0.015625)"/>
     </defs>
     <use xlink:href="#DejaVuSans-51"/>
     <use xlink:href="#DejaVuSans-52" transform="translate(63.375 0)"/>
     <use xlink:href="#DejaVuSans-57" transform="translate(124.5625 0)"/>
     <use xlink:href="#DejaVuSans-3" transform="translate(163.765625 0)"/>
     <use xlink:href="#DejaVuSans-56" transform="translate(195.546875 0)"/>
     <use xlink:href="#DejaVuSans-53" transform="translate(247.640625 0)"/>
     <use xlink:href="#DejaVuSans-48" transform="translate(311.125 0)"/>
     <use xlink:href="#DejaVuSans-46" transform="translate(372.65625 0)"/>
     <use xlink:href="#DejaVuSans-4c" transform="translate(427.640625 0)"/>
     <use xlink:href="#DejaVuSans-13af" transform="translate(455.421875 0)"/>
     <use xlink:href="#DejaVuSans-46" transform="translate(518.40625 0)"/>
    </g>
   </g>
   <g id="text_13">
    <!-- 12 -->
    <g style="fill: #ffffff" transform="translate(510.397768 243.32001) scale(0.12 -0.12)">
     <defs>
      <path id="DejaVuSans-Bold-15" d="M 1844 884 
L 3897 884 
L 3897 0 
L 506 0 
L 506 884 
L 2209 2388 
Q 2438 2594 2547 2791 
Q 2656 2988 2656 3200 
Q 2656 3528 2436 3728 
Q 2216 3928 1850 3928 
Q 1569 3928 1234 3808 
Q 900 3688 519 3450 
L 519 4475 
Q 925 4609 1322 4679 
Q 1719 4750 2100 4750 
Q 2938 4750 3402 4381 
Q 3866 4013 3866 3353 
Q 3866 2972 3669 2642 
Q 3472 2313 2841 1759 
L 1844 884 
z
" transform="scale(0.015625)"/>
     </defs>
     <use xlink:href="#DejaVuSans-Bold-14"/>
     <use xlink:href="#DejaVuSans-Bold-15" transform="translate(69.578125 0)"/>
    </g>
   </g>
   <g id="text_14">
    <!-- 4.0 -->
    <g style="fill: #898781" transform="translate(622.133839 356.091623) scale(0.12 -0.12)">
     <use xlink:href="#DejaVuSans-17"/>
     <use xlink:href="#DejaVuSans-11" transform="translate(63.625 0)"/>
     <use xlink:href="#DejaVuSans-13" transform="translate(95.40625 0)"/>
    </g>
   </g>
   <g id="text_15">
    <!-- P &lt; 0.0001 -->
    <g style="fill: #d03b3b" transform="translate(544.581741 132.441036) scale(0.1 -0.1)">
     <defs>
      <path id="DejaVuSans-Bold-33" d="M 588 4666 
L 2584 4666 
Q 3475 4666 3951 4270 
Q 4428 3875 4428 3144 
Q 4428 2409 3951 2014 
Q 3475 1619 2584 1619 
L 1791 1619 
L 1791 0 
L 588 0 
L 588 4666 
z
M 1791 3794 
L 1791 2491 
L 2456 2491 
Q 2806 2491 2997 2661 
Q 3188 2831 3188 3144 
Q 3188 3456 2997 3625 
Q 2806 3794 2456 3794 
L 1791 3794 
z
" transform="scale(0.015625)"/>
      <path id="DejaVuSans-Bold-1f" d="M 4684 3041 
L 1672 2003 
L 4684 972 
L 4684 191 
L 678 1638 
L 678 2375 
L 4684 3822 
L 4684 3041 
z
" transform="scale(0.015625)"/>
      <path id="DejaVuSans-Bold-13" d="M 2944 2338 
Q 2944 3213 2780 3570 
Q 2616 3928 2228 3928 
Q 1841 3928 1675 3570 
Q 1509 3213 1509 2338 
Q 1509 1453 1675 1090 
Q 1841 728 2228 728 
Q 2613 728 2778 1090 
Q 2944 1453 2944 2338 
z
M 4147 2328 
Q 4147 1169 3647 539 
Q 3147 -91 2228 -91 
Q 1306 -91 806 539 
Q 306 1169 306 2328 
Q 306 3491 806 4120 
Q 1306 4750 2228 4750 
Q 3147 4750 3647 4120 
Q 4147 3491 4147 2328 
z
" transform="scale(0.015625)"/>
     </defs>
     <use xlink:href="#DejaVuSans-Bold-33"/>
     <use xlink:href="#DejaVuSans-Bold-3" transform="translate(73.296875 0)"/>
     <use xlink:href="#DejaVuSans-Bold-1f" transform="translate(108.109375 0)"/>
     <use xlink:href="#DejaVuSans-Bold-3" transform="translate(191.90625 0)"/>
     <use xlink:href="#DejaVuSans-Bold-13" transform="translate(226.71875 0)"/>
     <use xlink:href="#DejaVuSans-Bold-11" transform="translate(296.296875 0)"/>
     <use xlink:href="#DejaVuSans-Bold-13" transform="translate(334.28125 0)"/>
     <use xlink:href="#DejaVuSans-Bold-13" transform="translate(403.859375 0)"/>
     <use xlink:href="#DejaVuSans-Bold-13" transform="translate(473.4375 0)"/>
     <use xlink:href="#DejaVuSans-Bold-14" transform="translate(543.015625 0)"/>
    </g>
    <!-- SPECIFIC TO REVERSAL -->
    <g style="fill: #d03b3b" transform="translate(509.855179 146.441036) scale(0.1 -0.1)">
     <defs>
      <path id="DejaVuSans-Bold-36" d="M 3834 4519 
L 3834 3531 
Q 3450 3703 3084 3790 
Q 2719 3878 2394 3878 
Q 1963 3878 1756 3759 
Q 1550 3641 1550 3391 
Q 1550 3203 1689 3098 
Q 1828 2994 2194 2919 
L 2706 2816 
Q 3484 2659 3812 2340 
Q 4141 2022 4141 1434 
Q 4141 663 3683 286 
Q 3225 -91 2284 -91 
Q 1841 -91 1394 -6 
Q 947 78 500 244 
L 500 1259 
Q 947 1022 1364 901 
Q 1781 781 2169 781 
Q 2563 781 2772 912 
Q 2981 1044 2981 1288 
Q 2981 1506 2839 1625 
Q 2697 1744 2272 1838 
L 1806 1941 
Q 1106 2091 782 2419 
Q 459 2747 459 3303 
Q 459 4000 909 4375 
Q 1359 4750 2203 4750 
Q 2588 4750 2994 4692 
Q 3400 4634 3834 4519 
z
" transform="scale(0.015625)"/>
      <path id="DejaVuSans-Bold-28" d="M 588 4666 
L 3834 4666 
L 3834 3756 
L 1791 3756 
L 1791 2888 
L 3713 2888 
L 3713 1978 
L 1791 1978 
L 1791 909 
L 3903 909 
L 3903 0 
L 588 0 
L 588 4666 
z
" transform="scale(0.015625)"/>
      <path id="DejaVuSans-Bold-26" d="M 4288 256 
Q 3956 84 3597 -3 
Q 3238 -91 2847 -91 
Q 1681 -91 1000 561 
Q 319 1213 319 2328 
Q 319 3447 1000 4098 
Q 1681 4750 2847 4750 
Q 3238 4750 3597 4662 
Q 3956 4575 4288 4403 
L 4288 3438 
Q 3953 3666 3628 3772 
Q 3303 3878 2944 3878 
Q 2300 3878 1931 3465 
Q 1563 3053 1563 2328 
Q 1563 1606 1931 1193 
Q 2300 781 2944 781 
Q 3303 781 3628 887 
Q 3953 994 4288 1222 
L 4288 256 
z
" transform="scale(0.015625)"/>
      <path id="DejaVuSans-Bold-2c" d="M 588 4666 
L 1791 4666 
L 1791 0 
L 588 0 
L 588 4666 
z
" transform="scale(0.015625)"/>
      <path id="DejaVuSans-Bold-29" d="M 588 4666 
L 3834 4666 
L 3834 3756 
L 1791 3756 
L 1791 2888 
L 3713 2888 
L 3713 1978 
L 1791 1978 
L 1791 0 
L 588 0 
L 588 4666 
z
" transform="scale(0.015625)"/>
      <path id="DejaVuSans-Bold-37" d="M 31 4666 
L 4331 4666 
L 4331 3756 
L 2784 3756 
L 2784 0 
L 1581 0 
L 1581 3756 
L 31 3756 
L 31 4666 
z
" transform="scale(0.015625)"/>
      <path id="DejaVuSans-Bold-35" d="M 2297 2597 
Q 2675 2597 2839 2737 
Q 3003 2878 3003 3200 
Q 3003 3519 2839 3656 
Q 2675 3794 2297 3794 
L 1791 3794 
L 1791 2597 
L 2297 2597 
z
M 1791 1766 
L 1791 0 
L 588 0 
L 588 4666 
L 2425 4666 
Q 3347 4666 3776 4356 
Q 4206 4047 4206 3378 
Q 4206 2916 3982 2619 
Q 3759 2322 3309 2181 
Q 3556 2125 3751 1926 
Q 3947 1728 4147 1325 
L 4800 0 
L 3519 0 
L 2950 1159 
Q 2778 1509 2601 1637 
Q 2425 1766 2131 1766 
L 1791 1766 
z
" transform="scale(0.015625)"/>
      <path id="DejaVuSans-Bold-39" d="M 31 4666 
L 1241 4666 
L 2478 1222 
L 3713 4666 
L 4922 4666 
L 3194 0 
L 1759 0 
L 31 4666 
z
" transform="scale(0.015625)"/>
      <path id="DejaVuSans-Bold-24" d="M 3419 850 
L 1538 850 
L 1241 0 
L 31 0 
L 1759 4666 
L 3194 4666 
L 4922 0 
L 3713 0 
L 3419 850 
z
M 1838 1716 
L 3116 1716 
L 2478 3572 
L 1838 1716 
z
" transform="scale(0.015625)"/>
      <path id="DejaVuSans-Bold-2f" d="M 588 4666 
L 1791 4666 
L 1791 909 
L 3903 909 
L 3903 0 
L 588 0 
L 588 4666 
z
" transform="scale(0.015625)"/>
     </defs>
     <use xlink:href="#DejaVuSans-Bold-36"/>
     <use xlink:href="#DejaVuSans-Bold-33" transform="translate(72.015625 0)"/>
     <use xlink:href="#DejaVuSans-Bold-28" transform="translate(145.3125 0)"/>
     <use xlink:href="#DejaVuSans-Bold-26" transform="translate(213.625 0)"/>
     <use xlink:href="#DejaVuSans-Bold-2c" transform="translate(287.015625 0)"/>
     <use xlink:href="#DejaVuSans-Bold-29" transform="translate(324.21875 0)"/>
     <use xlink:href="#DejaVuSans-Bold-2c" transform="translate(392.53125 0)"/>
     <use xlink:href="#DejaVuSans-Bold-26" transform="translate(429.734375 0)"/>
     <use xlink:href="#DejaVuSans-Bold-3" transform="translate(503.125 0)"/>
     <use xlink:href="#DejaVuSans-Bold-37" transform="translate(537.9375 0)"/>
     <use xlink:href="#DejaVuSans-Bold-32" transform="translate(606.15625 0)"/>
     <use xlink:href="#DejaVuSans-Bold-3" transform="translate(691.171875 0)"/>
     <use xlink:href="#DejaVuSans-Bold-35" transform="translate(725.984375 0)"/>
     <use xlink:href="#DejaVuSans-Bold-28" transform="translate(802.984375 0)"/>
     <use xlink:href="#DejaVuSans-Bold-39" transform="translate(871.296875 0)"/>
     <use xlink:href="#DejaVuSans-Bold-28" transform="translate(948.6875 0)"/>
     <use xlink:href="#DejaVuSans-Bold-35" transform="translate(1017 0)"/>
     <use xlink:href="#DejaVuSans-Bold-36" transform="translate(1094 0)"/>
     <use xlink:href="#DejaVuSans-Bold-24" transform="translate(1166.015625 0)"/>
     <use xlink:href="#DejaVuSans-Bold-2f" transform="translate(1243.40625 0)"/>
    </g>
   </g>
   <g id="legend_1">
    <g id="patch_9">
     <path d="M 111.24 71.403223 
L 125.24 71.403223 
L 125.24 63.103223 
L 111.24 63.103223 
z
" style="fill: #3987e5; stroke: #1a1a19; stroke-width: 1.5; stroke-linejoin: miter"/>
    </g>
    <g id="text_16">
     <!-- naive top 20, ranked by suppression -->
     <g style="fill: #c3c2b7" transform="translate(133.24 70.703223) scale(0.1 -0.1)">
      <defs>
       <path id="DejaVuSans-59" d="M 191 3500 
L 800 3500 
L 1894 563 
L 2988 3500 
L 3597 3500 
L 2284 0 
L 1503 0 
L 191 3500 
z
" transform="scale(0.015625)"/>
       <path id="DejaVuSans-5c" d="M 2059 -325 
Q 1816 -950 1584 -1140 
Q 1353 -1331 966 -1331 
L 506 -1331 
L 506 -850 
L 844 -850 
Q 1081 -850 1212 -737 
Q 1344 -625 1503 -206 
L 1606 56 
L 191 3500 
L 800 3500 
L 1894 763 
L 2988 3500 
L 3597 3500 
L 2059 -325 
z
" transform="scale(0.015625)"/>
      </defs>
      <use xlink:href="#DejaVuSans-51"/>
      <use xlink:href="#DejaVuSans-44" transform="translate(63.375 0)"/>
      <use xlink:href="#DejaVuSans-4c" transform="translate(124.65625 0)"/>
      <use xlink:href="#DejaVuSans-59" transform="translate(152.4375 0)"/>
      <use xlink:href="#DejaVuSans-48" transform="translate(211.625 0)"/>
      <use xlink:href="#DejaVuSans-3" transform="translate(273.15625 0)"/>
      <use xlink:href="#DejaVuSans-57" transform="translate(304.9375 0)"/>
      <use xlink:href="#DejaVuSans-52" transform="translate(344.140625 0)"/>
      <use xlink:href="#DejaVuSans-53" transform="translate(405.328125 0)"/>
      <use xlink:href="#DejaVuSans-3" transform="translate(468.8125 0)"/>
      <use xlink:href="#DejaVuSans-15" transform="translate(500.59375 0)"/>
      <use xlink:href="#DejaVuSans-13" transform="translate(564.21875 0)"/>
      <use xlink:href="#DejaVuSans-f" transform="translate(627.84375 0)"/>
      <use xlink:href="#DejaVuSans-3" transform="translate(659.625 0)"/>
      <use xlink:href="#DejaVuSans-55" transform="translate(691.40625 0)"/>
      <use xlink:href="#DejaVuSans-44" transform="translate(732.515625 0)"/>
      <use xlink:href="#DejaVuSans-51" transform="translate(793.796875 0)"/>
      <use xlink:href="#DejaVuSans-4e" transform="translate(857.171875 0)"/>
      <use xlink:href="#DejaVuSans-48" transform="translate(911.515625 0)"/>
      <use xlink:href="#DejaVuSans-47" transform="translate(973.046875 0)"/>
      <use xlink:href="#DejaVuSans-3" transform="translate(1036.53125 0)"/>
      <use xlink:href="#DejaVuSans-45" transform="translate(1068.3125 0)"/>
      <use xlink:href="#DejaVuSans-5c" transform="translate(1131.796875 0)"/>
      <use xlink:href="#DejaVuSans-3" transform="translate(1190.984375 0)"/>
      <use xlink:href="#DejaVuSans-56" transform="translate(1222.765625 0)"/>
      <use xlink:href="#DejaVuSans-58" transform="translate(1274.859375 0)"/>
      <use xlink:href="#DejaVuSans-53" transform="translate(1338.234375 0)"/>
      <use xlink:href="#DejaVuSans-53" transform="translate(1401.71875 0)"/>
      <use xlink:href="#DejaVuSans-55" transform="translate(1465.203125 0)"/>
      <use xlink:href="#DejaVuSans-48" transform="translate(1504.109375 0)"/>
      <use xlink:href="#DejaVuSans-56" transform="translate(1565.640625 0)"/>
      <use xlink:href="#DejaVuSans-56" transform="translate(1617.734375 0)"/>
      <use xlink:href="#DejaVuSans-4c" transform="translate(1669.828125 0)"/>
      <use xlink:href="#DejaVuSans-52" transform="translate(1697.609375 0)"/>
      <use xlink:href="#DejaVuSans-51" transform="translate(1758.796875 0)"/>
     </g>
    </g>
    <g id="patch_10">
     <path d="M 111.24 86.405566 
L 125.24 86.405566 
L 125.24 78.105566 
L 111.24 78.105566 
z
" style="fill: #3a3a37; stroke: #1a1a19; stroke-width: 1.5; stroke-linejoin: miter"/>
    </g>
    <g id="text_17">
     <!-- effect-magnitude-matched 20, mean of 5,000 draws -->
     <g style="fill: #c3c2b7" transform="translate(133.24 85.705566) scale(0.1 -0.1)">
      <defs>
       <path id="DejaVuSans-13ae" d="M 4531 4863 
L 4531 4384 
L 3981 4384 
Q 3672 4384 3551 4259 
Q 3431 4134 3431 3809 
L 3431 3500 
L 4378 3500 
L 4378 3053 
L 3431 3053 
L 3431 0 
L 2853 0 
L 2853 3053 
L 1275 3053 
L 1275 0 
L 697 0 
L 697 3053 
L 147 3053 
L 147 3500 
L 697 3500 
L 697 3744 
Q 697 4328 969 4595 
Q 1241 4863 1831 4863 
L 2375 4863 
L 2375 4384 
L 1825 4384 
Q 1516 4384 1394 4259 
Q 1275 4134 1275 3809 
L 1275 3500 
L 2853 3500 
L 2853 3744 
Q 2853 4328 3125 4595 
Q 3397 4863 3988 4863 
L 4531 4863 
z
" transform="scale(0.015625)"/>
       <path id="DejaVuSans-4a" d="M 2906 1791 
Q 2906 2416 2648 2759 
Q 2391 3103 1925 3103 
Q 1463 3103 1205 2759 
Q 947 2416 947 1791 
Q 947 1169 1205 825 
Q 1463 481 1925 481 
Q 2391 481 2648 825 
Q 2906 1169 2906 1791 
z
M 3481 434 
Q 3481 -459 3084 -895 
Q 2688 -1331 1869 -1331 
Q 1566 -1331 1297 -1286 
Q 1028 -1241 775 -1147 
L 775 -588 
Q 1028 -725 1275 -790 
Q 1522 -856 1778 -856 
Q 2344 -856 2625 -561 
Q 2906 -266 2906 331 
L 2906 616 
Q 2728 306 2450 153 
Q 2172 0 1784 0 
Q 1141 0 747 490 
Q 353 981 353 1791 
Q 353 2603 747 3093 
Q 1141 3584 1784 3584 
Q 2172 3584 2450 3431 
Q 2728 3278 2906 2969 
L 2906 3500 
L 3481 3500 
L 3481 434 
z
" transform="scale(0.015625)"/>
       <path id="DejaVuSans-4b" d="M 3513 2113 
L 3513 0 
L 2938 0 
L 2938 2094 
Q 2938 2591 2744 2837 
Q 2550 3084 2163 3084 
Q 1697 3084 1428 2787 
Q 1159 2491 1159 1978 
L 1159 0 
L 581 0 
L 581 4863 
L 1159 4863 
L 1159 2956 
Q 1366 3272 1645 3428 
Q 1925 3584 2291 3584 
Q 2894 3584 3203 3211 
Q 3513 2838 3513 2113 
z
" transform="scale(0.015625)"/>
      </defs>
      <use xlink:href="#DejaVuSans-48"/>
      <use xlink:href="#DejaVuSans-13ae" transform="translate(61.53125 0)"/>
      <use xlink:href="#DejaVuSans-48" transform="translate(130.421875 0)"/>
      <use xlink:href="#DejaVuSans-46" transform="translate(191.953125 0)"/>
      <use xlink:href="#DejaVuSans-57" transform="translate(246.9375 0)"/>
      <use xlink:href="#DejaVuSans-10" transform="translate(286.140625 0)"/>
      <use xlink:href="#DejaVuSans-50" transform="translate(322.21875 0)"/>
      <use xlink:href="#DejaVuSans-44" transform="translate(419.625 0)"/>
      <use xlink:href="#DejaVuSans-4a" transform="translate(480.90625 0)"/>
      <use xlink:href="#DejaVuSans-51" transform="translate(544.390625 0)"/>
      <use xlink:href="#DejaVuSans-4c" transform="translate(607.765625 0)"/>
      <use xlink:href="#DejaVuSans-57" transform="translate(635.546875 0)"/>
      <use xlink:href="#DejaVuSans-58" transform="translate(674.75 0)"/>
      <use xlink:href="#DejaVuSans-47" transform="translate(738.125 0)"/>
      <use xlink:href="#DejaVuSans-48" transform="translate(801.609375 0)"/>
      <use xlink:href="#DejaVuSans-10" transform="translate(863.140625 0)"/>
      <use xlink:href="#DejaVuSans-50" transform="translate(899.21875 0)"/>
      <use xlink:href="#DejaVuSans-44" transform="translate(996.625 0)"/>
      <use xlink:href="#DejaVuSans-57" transform="translate(1057.90625 0)"/>
      <use xlink:href="#DejaVuSans-46" transform="translate(1097.109375 0)"/>
      <use xlink:href="#DejaVuSans-4b" transform="translate(1152.09375 0)"/>
      <use xlink:href="#DejaVuSans-48" transform="translate(1215.46875 0)"/>
      <use xlink:href="#DejaVuSans-47" transform="translate(1277 0)"/>
      <use xlink:href="#DejaVuSans-3" transform="translate(1340.484375 0)"/>
      <use xlink:href="#DejaVuSans-15" transform="translate(1372.265625 0)"/>
      <use xlink:href="#DejaVuSans-13" transform="translate(1435.890625 0)"/>
      <use xlink:href="#DejaVuSans-f" transform="translate(1499.515625 0)"/>
      <use xlink:href="#DejaVuSans-3" transform="translate(1531.296875 0)"/>
      <use xlink:href="#DejaVuSans-50" transform="translate(1563.078125 0)"/>
      <use xlink:href="#DejaVuSans-48" transform="translate(1660.484375 0)"/>
      <use xlink:href="#DejaVuSans-44" transform="translate(1722.015625 0)"/>
      <use xlink:href="#DejaVuSans-51" transform="translate(1783.296875 0)"/>
      <use xlink:href="#DejaVuSans-3" transform="translate(1846.671875 0)"/>
      <use xlink:href="#DejaVuSans-52" transform="translate(1878.453125 0)"/>
      <use xlink:href="#DejaVuSans-49" transform="translate(1939.640625 0)"/>
      <use xlink:href="#DejaVuSans-3" transform="translate(1974.84375 0)"/>
      <use xlink:href="#DejaVuSans-18" transform="translate(2006.625 0)"/>
      <use xlink:href="#DejaVuSans-f" transform="translate(2070.25 0)"/>
      <use xlink:href="#DejaVuSans-13" transform="translate(2102.03125 0)"/>
      <use xlink:href="#DejaVuSans-13" transform="translate(2165.65625 0)"/>
      <use xlink:href="#DejaVuSans-13" transform="translate(2229.28125 0)"/>
      <use xlink:href="#DejaVuSans-3" transform="translate(2292.90625 0)"/>
      <use xlink:href="#DejaVuSans-47" transform="translate(2324.6875 0)"/>
      <use xlink:href="#DejaVuSans-55" transform="translate(2388.171875 0)"/>
      <use xlink:href="#DejaVuSans-44" transform="translate(2429.28125 0)"/>
      <use xlink:href="#DejaVuSans-5a" transform="translate(2490.5625 0)"/>
      <use xlink:href="#DejaVuSans-56" transform="translate(2572.34375 0)"/>
     </g>
    </g>
   </g>
  </g>
  <g id="text_18">
   <!-- Both groups are drawn from the same 286 evidence-passing perturbations, matched on decile of z_L2, the -->
   <g style="fill: #898781" transform="translate(7.2 468.38384) scale(0.09 -0.09)">
    <defs>
     <path id="DejaVuSans-1b" d="M 2034 2216 
Q 1584 2216 1326 1975 
Q 1069 1734 1069 1313 
Q 1069 891 1326 650 
Q 1584 409 2034 409 
Q 2484 409 2743 651 
Q 3003 894 3003 1313 
Q 3003 1734 2745 1975 
Q 2488 2216 2034 2216 
z
M 1403 2484 
Q 997 2584 770 2862 
Q 544 3141 544 3541 
Q 544 4100 942 4425 
Q 1341 4750 2034 4750 
Q 2731 4750 3128 4425 
Q 3525 4100 3525 3541 
Q 3525 3141 3298 2862 
Q 3072 2584 2669 2484 
Q 3125 2378 3379 2068 
Q 3634 1759 3634 1313 
Q 3634 634 3220 271 
Q 2806 -91 2034 -91 
Q 1263 -91 848 271 
Q 434 634 434 1313 
Q 434 1759 690 2068 
Q 947 2378 1403 2484 
z
M 1172 3481 
Q 1172 3119 1398 2916 
Q 1625 2713 2034 2713 
Q 2441 2713 2670 2916 
Q 2900 3119 2900 3481 
Q 2900 3844 2670 4047 
Q 2441 4250 2034 4250 
Q 1625 4250 1398 4047 
Q 1172 3844 1172 3481 
z
" transform="scale(0.015625)"/>
     <path id="DejaVuSans-4f" d="M 603 4863 
L 1178 4863 
L 1178 0 
L 603 0 
L 603 4863 
z
" transform="scale(0.015625)"/>
     <path id="DejaVuSans-5d" d="M 353 3500 
L 3084 3500 
L 3084 2975 
L 922 459 
L 3084 459 
L 3084 0 
L 275 0 
L 275 525 
L 2438 3041 
L 353 3041 
L 353 3500 
z
" transform="scale(0.015625)"/>
     <path id="DejaVuSans-42" d="M 3263 -1063 
L 3263 -1509 
L -63 -1509 
L -63 -1063 
L 3263 -1063 
z
" transform="scale(0.015625)"/>
    </defs>
    <use xlink:href="#DejaVuSans-25"/>
    <use xlink:href="#DejaVuSans-52" transform="translate(68.609375 0)"/>
    <use xlink:href="#DejaVuSans-57" transform="translate(129.796875 0)"/>
    <use xlink:href="#DejaVuSans-4b" transform="translate(169 0)"/>
    <use xlink:href="#DejaVuSans-3" transform="translate(232.375 0)"/>
    <use xlink:href="#DejaVuSans-4a" transform="translate(264.15625 0)"/>
    <use xlink:href="#DejaVuSans-55" transform="translate(327.640625 0)"/>
    <use xlink:href="#DejaVuSans-52" transform="translate(366.546875 0)"/>
    <use xlink:href="#DejaVuSans-58" transform="translate(427.734375 0)"/>
    <use xlink:href="#DejaVuSans-53" transform="translate(491.109375 0)"/>
    <use xlink:href="#DejaVuSans-56" transform="translate(554.59375 0)"/>
    <use xlink:href="#DejaVuSans-3" transform="translate(606.6875 0)"/>
    <use xlink:href="#DejaVuSans-44" transform="translate(638.46875 0)"/>
    <use xlink:href="#DejaVuSans-55" transform="translate(699.75 0)"/>
    <use xlink:href="#DejaVuSans-48" transform="translate(738.65625 0)"/>
    <use xlink:href="#DejaVuSans-3" transform="translate(800.1875 0)"/>
    <use xlink:href="#DejaVuSans-47" transform="translate(831.96875 0)"/>
    <use xlink:href="#DejaVuSans-55" transform="translate(895.453125 0)"/>
    <use xlink:href="#DejaVuSans-44" transform="translate(936.5625 0)"/>
    <use xlink:href="#DejaVuSans-5a" transform="translate(997.84375 0)"/>
    <use xlink:href="#DejaVuSans-51" transform="translate(1079.625 0)"/>
    <use xlink:href="#DejaVuSans-3" transform="translate(1143 0)"/>
    <use xlink:href="#DejaVuSans-49" transform="translate(1174.78125 0)"/>
    <use xlink:href="#DejaVuSans-55" transform="translate(1209.984375 0)"/>
    <use xlink:href="#DejaVuSans-52" transform="translate(1248.890625 0)"/>
    <use xlink:href="#DejaVuSans-50" transform="translate(1310.078125 0)"/>
    <use xlink:href="#DejaVuSans-3" transform="translate(1407.484375 0)"/>
    <use xlink:href="#DejaVuSans-57" transform="translate(1439.265625 0)"/>
    <use xlink:href="#DejaVuSans-4b" transform="translate(1478.46875 0)"/>
    <use xlink:href="#DejaVuSans-48" transform="translate(1541.84375 0)"/>
    <use xlink:href="#DejaVuSans-3" transform="translate(1603.375 0)"/>
    <use xlink:href="#DejaVuSans-56" transform="translate(1635.15625 0)"/>
    <use xlink:href="#DejaVuSans-44" transform="translate(1687.25 0)"/>
    <use xlink:href="#DejaVuSans-50" transform="translate(1748.53125 0)"/>
    <use xlink:href="#DejaVuSans-48" transform="translate(1845.9375 0)"/>
    <use xlink:href="#DejaVuSans-3" transform="translate(1907.46875 0)"/>
    <use xlink:href="#DejaVuSans-15" transform="translate(1939.25 0)"/>
    <use xlink:href="#DejaVuSans-1b" transform="translate(2002.875 0)"/>
    <use xlink:href="#DejaVuSans-19" transform="translate(2066.5 0)"/>
    <use xlink:href="#DejaVuSans-3" transform="translate(2130.125 0)"/>
    <use xlink:href="#DejaVuSans-48" transform="translate(2161.90625 0)"/>
    <use xlink:href="#DejaVuSans-59" transform="translate(2223.4375 0)"/>
    <use xlink:href="#DejaVuSans-4c" transform="translate(2282.625 0)"/>
    <use xlink:href="#DejaVuSans-47" transform="translate(2310.40625 0)"/>
    <use xlink:href="#DejaVuSans-48" transform="translate(2373.890625 0)"/>
    <use xlink:href="#DejaVuSans-51" transform="translate(2435.421875 0)"/>
    <use xlink:href="#DejaVuSans-46" transform="translate(2498.796875 0)"/>
    <use xlink:href="#DejaVuSans-48" transform="translate(2553.78125 0)"/>
    <use xlink:href="#DejaVuSans-10" transform="translate(2615.3125 0)"/>
    <use xlink:href="#DejaVuSans-53" transform="translate(2651.390625 0)"/>
    <use xlink:href="#DejaVuSans-44" transform="translate(2714.875 0)"/>
    <use xlink:href="#DejaVuSans-56" transform="translate(2776.15625 0)"/>
    <use xlink:href="#DejaVuSans-56" transform="translate(2828.25 0)"/>
    <use xlink:href="#DejaVuSans-4c" transform="translate(2880.34375 0)"/>
    <use xlink:href="#DejaVuSans-51" transform="translate(2908.125 0)"/>
    <use xlink:href="#DejaVuSans-4a" transform="translate(2971.5 0)"/>
    <use xlink:href="#DejaVuSans-3" transform="translate(3034.984375 0)"/>
    <use xlink:href="#DejaVuSans-53" transform="translate(3066.765625 0)"/>
    <use xlink:href="#DejaVuSans-48" transform="translate(3130.25 0)"/>
    <use xlink:href="#DejaVuSans-55" transform="translate(3191.78125 0)"/>
    <use xlink:href="#DejaVuSans-57" transform="translate(3232.890625 0)"/>
    <use xlink:href="#DejaVuSans-58" transform="translate(3272.09375 0)"/>
    <use xlink:href="#DejaVuSans-55" transform="translate(3335.46875 0)"/>
    <use xlink:href="#DejaVuSans-45" transform="translate(3376.578125 0)"/>
    <use xlink:href="#DejaVuSans-44" transform="translate(3440.0625 0)"/>
    <use xlink:href="#DejaVuSans-57" transform="translate(3501.34375 0)"/>
    <use xlink:href="#DejaVuSans-4c" transform="translate(3540.546875 0)"/>
    <use xlink:href="#DejaVuSans-52" transform="translate(3568.328125 0)"/>
    <use xlink:href="#DejaVuSans-51" transform="translate(3629.515625 0)"/>
    <use xlink:href="#DejaVuSans-56" transform="translate(3692.890625 0)"/>
    <use xlink:href="#DejaVuSans-f" transform="translate(3744.984375 0)"/>
    <use xlink:href="#DejaVuSans-3" transform="translate(3776.765625 0)"/>
    <use xlink:href="#DejaVuSans-50" transform="translate(3808.546875 0)"/>
    <use xlink:href="#DejaVuSans-44" transform="translate(3905.953125 0)"/>
    <use xlink:href="#DejaVuSans-57" transform="translate(3967.234375 0)"/>
    <use xlink:href="#DejaVuSans-46" transform="translate(4006.4375 0)"/>
    <use xlink:href="#DejaVuSans-4b" transform="translate(4061.421875 0)"/>
    <use xlink:href="#DejaVuSans-48" transform="translate(4124.796875 0)"/>
    <use xlink:href="#DejaVuSans-47" transform="translate(4186.328125 0)"/>
    <use xlink:href="#DejaVuSans-3" transform="translate(4249.8125 0)"/>
    <use xlink:href="#DejaVuSans-52" transform="translate(4281.59375 0)"/>
    <use xlink:href="#DejaVuSans-51" transform="translate(4342.78125 0)"/>
    <use xlink:href="#DejaVuSans-3" transform="translate(4406.15625 0)"/>
    <use xlink:href="#DejaVuSans-47" transform="translate(4437.9375 0)"/>
    <use xlink:href="#DejaVuSans-48" transform="translate(4501.421875 0)"/>
    <use xlink:href="#DejaVuSans-46" transform="translate(4562.953125 0)"/>
    <use xlink:href="#DejaVuSans-4c" transform="translate(4617.9375 0)"/>
    <use xlink:href="#DejaVuSans-4f" transform="translate(4645.71875 0)"/>
    <use xlink:href="#DejaVuSans-48" transform="translate(4673.5 0)"/>
    <use xlink:href="#DejaVuSans-3" transform="translate(4735.03125 0)"/>
    <use xlink:href="#DejaVuSans-52" transform="translate(4766.8125 0)"/>
    <use xlink:href="#DejaVuSans-49" transform="translate(4828 0)"/>
    <use xlink:href="#DejaVuSans-3" transform="translate(4863.203125 0)"/>
    <use xlink:href="#DejaVuSans-5d" transform="translate(4894.984375 0)"/>
    <use xlink:href="#DejaVuSans-42" transform="translate(4947.46875 0)"/>
    <use xlink:href="#DejaVuSans-2f" transform="translate(4997.46875 0)"/>
    <use xlink:href="#DejaVuSans-15" transform="translate(5053.1875 0)"/>
    <use xlink:href="#DejaVuSans-f" transform="translate(5116.8125 0)"/>
    <use xlink:href="#DejaVuSans-3" transform="translate(5148.59375 0)"/>
    <use xlink:href="#DejaVuSans-57" transform="translate(5180.375 0)"/>
    <use xlink:href="#DejaVuSans-4b" transform="translate(5219.578125 0)"/>
    <use xlink:href="#DejaVuSans-48" transform="translate(5282.953125 0)"/>
   </g>
   <!-- transcriptome-wide effect magnitude, computed off-module and off-target. Homeostasis does most of the rejecting -->
   <g style="fill: #898781" transform="translate(7.2 479.186301) scale(0.09 -0.09)">
    <use xlink:href="#DejaVuSans-57"/>
    <use xlink:href="#DejaVuSans-55" transform="translate(39.203125 0)"/>
    <use xlink:href="#DejaVuSans-44" transform="translate(80.3125 0)"/>
    <use xlink:href="#DejaVuSans-51" transform="translate(141.59375 0)"/>
    <use xlink:href="#DejaVuSans-56" transform="translate(204.96875 0)"/>
    <use xlink:href="#DejaVuSans-46" transform="translate(257.0625 0)"/>
    <use xlink:href="#DejaVuSans-55" transform="translate(312.046875 0)"/>
    <use xlink:href="#DejaVuSans-4c" transform="translate(353.15625 0)"/>
    <use xlink:href="#DejaVuSans-53" transform="translate(380.9375 0)"/>
    <use xlink:href="#DejaVuSans-57" transform="translate(444.421875 0)"/>
    <use xlink:href="#DejaVuSans-52" transform="translate(483.625 0)"/>
    <use xlink:href="#DejaVuSans-50" transform="translate(544.8125 0)"/>
    <use xlink:href="#DejaVuSans-48" transform="translate(642.21875 0)"/>
    <use xlink:href="#DejaVuSans-10" transform="translate(703.75 0)"/>
    <use xlink:href="#DejaVuSans-5a" transform="translate(739.828125 0)"/>
    <use xlink:href="#DejaVuSans-4c" transform="translate(821.609375 0)"/>
    <use xlink:href="#DejaVuSans-47" transform="translate(849.390625 0)"/>
    <use xlink:href="#DejaVuSans-48" transform="translate(912.875 0)"/>
    <use xlink:href="#DejaVuSans-3" transform="translate(974.40625 0)"/>
    <use xlink:href="#DejaVuSans-48" transform="translate(1006.1875 0)"/>
    <use xlink:href="#DejaVuSans-13ae" transform="translate(1067.71875 0)"/>
    <use xlink:href="#DejaVuSans-48" transform="translate(1136.609375 0)"/>
    <use xlink:href="#DejaVuSans-46" transform="translate(1198.140625 0)"/>
    <use xlink:href="#DejaVuSans-57" transform="translate(1253.125 0)"/>
    <use xlink:href="#DejaVuSans-3" transform="translate(1292.328125 0)"/>
    <use xlink:href="#DejaVuSans-50" transform="translate(1324.109375 0)"/>
    <use xlink:href="#DejaVuSans-44" transform="translate(1421.515625 0)"/>
    <use xlink:href="#DejaVuSans-4a" transform="translate(1482.796875 0)"/>
    <use xlink:href="#DejaVuSans-51" transform="translate(1546.28125 0)"/>
    <use xlink:href="#DejaVuSans-4c" transform="translate(1609.65625 0)"/>
    <use xlink:href="#DejaVuSans-57" transform="translate(1637.4375 0)"/>
    <use xlink:href="#DejaVuSans-58" transform="translate(1676.640625 0)"/>
    <use xlink:href="#DejaVuSans-47" transform="translate(1740.015625 0)"/>
    <use xlink:href="#DejaVuSans-48" transform="translate(1803.5 0)"/>
    <use xlink:href="#DejaVuSans-f" transform="translate(1865.03125 0)"/>
    <use xlink:href="#DejaVuSans-3" transform="translate(1896.8125 0)"/>
    <use xlink:href="#DejaVuSans-46" transform="translate(1928.59375 0)"/>
    <use xlink:href="#DejaVuSans-52" transform="translate(1983.578125 0)"/>
    <use xlink:href="#DejaVuSans-50" transform="translate(2044.765625 0)"/>
    <use xlink:href="#DejaVuSans-53" transform="translate(2142.171875 0)"/>
    <use xlink:href="#DejaVuSans-58" transform="translate(2205.65625 0)"/>
    <use xlink:href="#DejaVuSans-57" transform="translate(2269.03125 0)"/>
    <use xlink:href="#DejaVuSans-48" transform="translate(2308.234375 0)"/>
    <use xlink:href="#DejaVuSans-47" transform="translate(2369.765625 0)"/>
    <use xlink:href="#DejaVuSans-3" transform="translate(2433.25 0)"/>
    <use xlink:href="#DejaVuSans-52" transform="translate(2465.03125 0)"/>
    <use xlink:href="#DejaVuSans-13ae" transform="translate(2526.21875 0)"/>
    <use xlink:href="#DejaVuSans-10" transform="translate(2595.109375 0)"/>
    <use xlink:href="#DejaVuSans-50" transform="translate(2631.1875 0)"/>
    <use xlink:href="#DejaVuSans-52" transform="translate(2728.59375 0)"/>
    <use xlink:href="#DejaVuSans-47" transform="translate(2789.78125 0)"/>
    <use xlink:href="#DejaVuSans-58" transform="translate(2853.265625 0)"/>
    <use xlink:href="#DejaVuSans-4f" transform="translate(2916.640625 0)"/>
    <use xlink:href="#DejaVuSans-48" transform="translate(2944.421875 0)"/>
    <use xlink:href="#DejaVuSans-3" transform="translate(3005.953125 0)"/>
    <use xlink:href="#DejaVuSans-44" transform="translate(3037.734375 0)"/>
    <use xlink:href="#DejaVuSans-51" transform="translate(3099.015625 0)"/>
    <use xlink:href="#DejaVuSans-47" transform="translate(3162.390625 0)"/>
    <use xlink:href="#DejaVuSans-3" transform="translate(3225.875 0)"/>
    <use xlink:href="#DejaVuSans-52" transform="translate(3257.65625 0)"/>
    <use xlink:href="#DejaVuSans-13ae" transform="translate(3318.84375 0)"/>
    <use xlink:href="#DejaVuSans-10" transform="translate(3387.734375 0)"/>
    <use xlink:href="#DejaVuSans-57" transform="translate(3423.8125 0)"/>
    <use xlink:href="#DejaVuSans-44" transform="translate(3463.015625 0)"/>
    <use xlink:href="#DejaVuSans-55" transform="translate(3524.296875 0)"/>
    <use xlink:href="#DejaVuSans-4a" transform="translate(3563.65625 0)"/>
    <use xlink:href="#DejaVuSans-48" transform="translate(3627.140625 0)"/>
    <use xlink:href="#DejaVuSans-57" transform="translate(3688.671875 0)"/>
    <use xlink:href="#DejaVuSans-11" transform="translate(3727.875 0)"/>
    <use xlink:href="#DejaVuSans-3" transform="translate(3759.65625 0)"/>
    <use xlink:href="#DejaVuSans-2b" transform="translate(3791.4375 0)"/>
    <use xlink:href="#DejaVuSans-52" transform="translate(3866.640625 0)"/>
    <use xlink:href="#DejaVuSans-50" transform="translate(3927.828125 0)"/>
    <use xlink:href="#DejaVuSans-48" transform="translate(4025.234375 0)"/>
    <use xlink:href="#DejaVuSans-52" transform="translate(4086.765625 0)"/>
    <use xlink:href="#DejaVuSans-56" transform="translate(4147.953125 0)"/>
    <use xlink:href="#DejaVuSans-57" transform="translate(4200.046875 0)"/>
    <use xlink:href="#DejaVuSans-44" transform="translate(4239.25 0)"/>
    <use xlink:href="#DejaVuSans-56" transform="translate(4300.53125 0)"/>
    <use xlink:href="#DejaVuSans-4c" transform="translate(4352.625 0)"/>
    <use xlink:href="#DejaVuSans-56" transform="translate(4380.40625 0)"/>
    <use xlink:href="#DejaVuSans-3" transform="translate(4432.5 0)"/>
    <use xlink:href="#DejaVuSans-47" transform="translate(4464.28125 0)"/>
    <use xlink:href="#DejaVuSans-52" transform="translate(4527.765625 0)"/>
    <use xlink:href="#DejaVuSans-48" transform="translate(4588.953125 0)"/>
    <use xlink:href="#DejaVuSans-56" transform="translate(4650.484375 0)"/>
    <use xlink:href="#DejaVuSans-3" transform="translate(4702.578125 0)"/>
    <use xlink:href="#DejaVuSans-50" transform="translate(4734.359375 0)"/>
    <use xlink:href="#DejaVuSans-52" transform="translate(4831.765625 0)"/>
    <use xlink:href="#DejaVuSans-56" transform="translate(4892.953125 0)"/>
    <use xlink:href="#DejaVuSans-57" transform="translate(4945.046875 0)"/>
    <use xlink:href="#DejaVuSans-3" transform="translate(4984.25 0)"/>
    <use xlink:href="#DejaVuSans-52" transform="translate(5016.03125 0)"/>
    <use xlink:href="#DejaVuSans-49" transform="translate(5077.21875 0)"/>
    <use xlink:href="#DejaVuSans-3" transform="translate(5112.421875 0)"/>
    <use xlink:href="#DejaVuSans-57" transform="translate(5144.203125 0)"/>
    <use xlink:href="#DejaVuSans-4b" transform="translate(5183.40625 0)"/>
    <use xlink:href="#DejaVuSans-48" transform="translate(5246.78125 0)"/>
    <use xlink:href="#DejaVuSans-3" transform="translate(5308.3125 0)"/>
    <use xlink:href="#DejaVuSans-55" transform="translate(5340.09375 0)"/>
    <use xlink:href="#DejaVuSans-48" transform="translate(5379 0)"/>
    <use xlink:href="#DejaVuSans-4d" transform="translate(5440.53125 0)"/>
    <use xlink:href="#DejaVuSans-48" transform="translate(5468.3125 0)"/>
    <use xlink:href="#DejaVuSans-46" transform="translate(5529.84375 0)"/>
    <use xlink:href="#DejaVuSans-57" transform="translate(5584.828125 0)"/>
    <use xlink:href="#DejaVuSans-4c" transform="translate(5624.03125 0)"/>
    <use xlink:href="#DejaVuSans-51" transform="translate(5651.8125 0)"/>
    <use xlink:href="#DejaVuSans-4a" transform="translate(5715.1875 0)"/>
   </g>
   <!-- and explains none of it: a shortlist of equal effect size is rejected just as often. Tolerance collapse is what -->
   <g style="fill: #898781" transform="translate(7.2 489.988762) scale(0.09 -0.09)">
    <defs>
     <path id="DejaVuSans-5b" d="M 3513 3500 
L 2247 1797 
L 3578 0 
L 2900 0 
L 1881 1375 
L 863 0 
L 184 0 
L 1544 1831 
L 300 3500 
L 978 3500 
L 1906 2253 
L 2834 3500 
L 3513 3500 
z
" transform="scale(0.015625)"/>
     <path id="DejaVuSans-1d" d="M 750 794 
L 1409 794 
L 1409 0 
L 750 0 
L 750 794 
z
M 750 3309 
L 1409 3309 
L 1409 2516 
L 750 2516 
L 750 3309 
z
" transform="scale(0.015625)"/>
     <path id="DejaVuSans-54" d="M 947 1747 
Q 947 1113 1208 752 
Q 1469 391 1925 391 
Q 2381 391 2643 752 
Q 2906 1113 2906 1747 
Q 2906 2381 2643 2742 
Q 2381 3103 1925 3103 
Q 1469 3103 1208 2742 
Q 947 2381 947 1747 
z
M 2906 525 
Q 2725 213 2448 61 
Q 2172 -91 1784 -91 
Q 1150 -91 751 415 
Q 353 922 353 1747 
Q 353 2572 751 3078 
Q 1150 3584 1784 3584 
Q 2172 3584 2448 3432 
Q 2725 3281 2906 2969 
L 2906 3500 
L 3481 3500 
L 3481 -1331 
L 2906 -1331 
L 2906 525 
z
" transform="scale(0.015625)"/>
    </defs>
    <use xlink:href="#DejaVuSans-44"/>
    <use xlink:href="#DejaVuSans-51" transform="translate(61.28125 0)"/>
    <use xlink:href="#DejaVuSans-47" transform="translate(124.65625 0)"/>
    <use xlink:href="#DejaVuSans-3" transform="translate(188.140625 0)"/>
    <use xlink:href="#DejaVuSans-48" transform="translate(219.921875 0)"/>
    <use xlink:href="#DejaVuSans-5b" transform="translate(279.703125 0)"/>
    <use xlink:href="#DejaVuSans-53" transform="translate(338.890625 0)"/>
    <use xlink:href="#DejaVuSans-4f" transform="translate(402.375 0)"/>
    <use xlink:href="#DejaVuSans-44" transform="translate(430.15625 0)"/>
    <use xlink:href="#DejaVuSans-4c" transform="translate(491.4375 0)"/>
    <use xlink:href="#DejaVuSans-51" transform="translate(519.21875 0)"/>
    <use xlink:href="#DejaVuSans-56" transform="translate(582.59375 0)"/>
    <use xlink:href="#DejaVuSans-3" transform="translate(634.6875 0)"/>
    <use xlink:href="#DejaVuSans-51" transform="translate(666.46875 0)"/>
    <use xlink:href="#DejaVuSans-52" transform="translate(729.84375 0)"/>
    <use xlink:href="#DejaVuSans-51" transform="translate(791.03125 0)"/>
    <use xlink:href="#DejaVuSans-48" transform="translate(854.40625 0)"/>
    <use xlink:href="#DejaVuSans-3" transform="translate(915.9375 0)"/>
    <use xlink:href="#DejaVuSans-52" transform="translate(947.71875 0)"/>
    <use xlink:href="#DejaVuSans-49" transform="translate(1008.90625 0)"/>
    <use xlink:href="#DejaVuSans-3" transform="translate(1044.109375 0)"/>
    <use xlink:href="#DejaVuSans-4c" transform="translate(1075.890625 0)"/>
    <use xlink:href="#DejaVuSans-57" transform="translate(1103.671875 0)"/>
    <use xlink:href="#DejaVuSans-1d" transform="translate(1142.875 0)"/>
    <use xlink:href="#DejaVuSans-3" transform="translate(1176.5625 0)"/>
    <use xlink:href="#DejaVuSans-44" transform="translate(1208.34375 0)"/>
    <use xlink:href="#DejaVuSans-3" transform="translate(1269.625 0)"/>
    <use xlink:href="#DejaVuSans-56" transform="translate(1301.40625 0)"/>
    <use xlink:href="#DejaVuSans-4b" transform="translate(1353.5 0)"/>
    <use xlink:href="#DejaVuSans-52" transform="translate(1416.875 0)"/>
    <use xlink:href="#DejaVuSans-55" transform="translate(1478.0625 0)"/>
    <use xlink:href="#DejaVuSans-57" transform="translate(1519.171875 0)"/>
    <use xlink:href="#DejaVuSans-4f" transform="translate(1558.375 0)"/>
    <use xlink:href="#DejaVuSans-4c" transform="translate(1586.15625 0)"/>
    <use xlink:href="#DejaVuSans-56" transform="translate(1613.9375 0)"/>
    <use xlink:href="#DejaVuSans-57" transform="translate(1666.03125 0)"/>
    <use xlink:href="#DejaVuSans-3" transform="translate(1705.234375 0)"/>
    <use xlink:href="#DejaVuSans-52" transform="translate(1737.015625 0)"/>
    <use xlink:href="#DejaVuSans-49" transform="translate(1798.203125 0)"/>
    <use xlink:href="#DejaVuSans-3" transform="translate(1833.40625 0)"/>
    <use xlink:href="#DejaVuSans-48" transform="translate(1865.1875 0)"/>
    <use xlink:href="#DejaVuSans-54" transform="translate(1926.71875 0)"/>
    <use xlink:href="#DejaVuSans-58" transform="translate(1990.203125 0)"/>
    <use xlink:href="#DejaVuSans-44" transform="translate(2053.578125 0)"/>
    <use xlink:href="#DejaVuSans-4f" transform="translate(2114.859375 0)"/>
    <use xlink:href="#DejaVuSans-3" transform="translate(2142.640625 0)"/>
    <use xlink:href="#DejaVuSans-48" transform="translate(2174.421875 0)"/>
    <use xlink:href="#DejaVuSans-13ae" transform="translate(2235.953125 0)"/>
    <use xlink:href="#DejaVuSans-48" transform="translate(2304.84375 0)"/>
    <use xlink:href="#DejaVuSans-46" transform="translate(2366.375 0)"/>
    <use xlink:href="#DejaVuSans-57" transform="translate(2421.359375 0)"/>
    <use xlink:href="#DejaVuSans-3" transform="translate(2460.5625 0)"/>
    <use xlink:href="#DejaVuSans-56" transform="translate(2492.34375 0)"/>
    <use xlink:href="#DejaVuSans-4c" transform="translate(2544.4375 0)"/>
    <use xlink:href="#DejaVuSans-5d" transform="translate(2572.21875 0)"/>
    <use xlink:href="#DejaVuSans-48" transform="translate(2624.703125 0)"/>
    <use xlink:href="#DejaVuSans-3" transform="translate(2686.234375 0)"/>
    <use xlink:href="#DejaVuSans-4c" transform="translate(2718.015625 0)"/>
    <use xlink:href="#DejaVuSans-56" transform="translate(2745.796875 0)"/>
    <use xlink:href="#DejaVuSans-3" transform="translate(2797.890625 0)"/>
    <use xlink:href="#DejaVuSans-55" transform="translate(2829.671875 0)"/>
    <use xlink:href="#DejaVuSans-48" transform="translate(2868.578125 0)"/>
    <use xlink:href="#DejaVuSans-4d" transform="translate(2930.109375 0)"/>
    <use xlink:href="#DejaVuSans-48" transform="translate(2957.890625 0)"/>
    <use xlink:href="#DejaVuSans-46" transform="translate(3019.421875 0)"/>
    <use xlink:href="#DejaVuSans-57" transform="translate(3074.40625 0)"/>
    <use xlink:href="#DejaVuSans-48" transform="translate(3113.609375 0)"/>
    <use xlink:href="#DejaVuSans-47" transform="translate(3175.140625 0)"/>
    <use xlink:href="#DejaVuSans-3" transform="translate(3238.625 0)"/>
    <use xlink:href="#DejaVuSans-4d" transform="translate(3270.40625 0)"/>
    <use xlink:href="#DejaVuSans-58" transform="translate(3298.1875 0)"/>
    <use xlink:href="#DejaVuSans-56" transform="translate(3361.5625 0)"/>
    <use xlink:href="#DejaVuSans-57" transform="translate(3413.65625 0)"/>
    <use xlink:href="#DejaVuSans-3" transform="translate(3452.859375 0)"/>
    <use xlink:href="#DejaVuSans-44" transform="translate(3484.640625 0)"/>
    <use xlink:href="#DejaVuSans-56" transform="translate(3545.921875 0)"/>
    <use xlink:href="#DejaVuSans-3" transform="translate(3598.015625 0)"/>
    <use xlink:href="#DejaVuSans-52" transform="translate(3629.796875 0)"/>
    <use xlink:href="#DejaVuSans-49" transform="translate(3690.984375 0)"/>
    <use xlink:href="#DejaVuSans-57" transform="translate(3724.4375 0)"/>
    <use xlink:href="#DejaVuSans-48" transform="translate(3763.640625 0)"/>
    <use xlink:href="#DejaVuSans-51" transform="translate(3825.171875 0)"/>
    <use xlink:href="#DejaVuSans-11" transform="translate(3888.546875 0)"/>
    <use xlink:href="#DejaVuSans-3" transform="translate(3920.328125 0)"/>
    <use xlink:href="#DejaVuSans-37" transform="translate(3952.109375 0)"/>
    <use xlink:href="#DejaVuSans-52" transform="translate(3996.203125 0)"/>
    <use xlink:href="#DejaVuSans-4f" transform="translate(4057.390625 0)"/>
    <use xlink:href="#DejaVuSans-48" transform="translate(4085.171875 0)"/>
    <use xlink:href="#DejaVuSans-55" transform="translate(4146.703125 0)"/>
    <use xlink:href="#DejaVuSans-44" transform="translate(4187.8125 0)"/>
    <use xlink:href="#DejaVuSans-51" transform="translate(4249.09375 0)"/>
    <use xlink:href="#DejaVuSans-46" transform="translate(4312.46875 0)"/>
    <use xlink:href="#DejaVuSans-48" transform="translate(4367.453125 0)"/>
    <use xlink:href="#DejaVuSans-3" transform="translate(4428.984375 0)"/>
    <use xlink:href="#DejaVuSans-46" transform="translate(4460.765625 0)"/>
    <use xlink:href="#DejaVuSans-52" transform="translate(4515.75 0)"/>
    <use xlink:href="#DejaVuSans-4f" transform="translate(4576.9375 0)"/>
    <use xlink:href="#DejaVuSans-4f" transform="translate(4604.71875 0)"/>
    <use xlink:href="#DejaVuSans-44" transform="translate(4632.5 0)"/>
    <use xlink:href="#DejaVuSans-53" transform="translate(4693.78125 0)"/>
    <use xlink:href="#DejaVuSans-56" transform="translate(4757.265625 0)"/>
    <use xlink:href="#DejaVuSans-48" transform="translate(4809.359375 0)"/>
    <use xlink:href="#DejaVuSans-3" transform="translate(4870.890625 0)"/>
    <use xlink:href="#DejaVuSans-4c" transform="translate(4902.671875 0)"/>
    <use xlink:href="#DejaVuSans-56" transform="translate(4930.453125 0)"/>
    <use xlink:href="#DejaVuSans-3" transform="translate(4982.546875 0)"/>
    <use xlink:href="#DejaVuSans-5a" transform="translate(5014.328125 0)"/>
    <use xlink:href="#DejaVuSans-4b" transform="translate(5096.109375 0)"/>
    <use xlink:href="#DejaVuSans-44" transform="translate(5159.484375 0)"/>
    <use xlink:href="#DejaVuSans-57" transform="translate(5220.765625 0)"/>
   </g>
   <!-- ranking by reversal specifically brings in. It is also the axis a 127-agent adversarial audit attacked hardest. -->
   <g style="fill: #898781" transform="translate(7.2 500.791223) scale(0.09 -0.09)">
    <defs>
     <path id="DejaVuSans-1a" d="M 525 4666 
L 3525 4666 
L 3525 4397 
L 1831 0 
L 1172 0 
L 2766 4134 
L 525 4134 
L 525 4666 
z
" transform="scale(0.015625)"/>
    </defs>
    <use xlink:href="#DejaVuSans-55"/>
    <use xlink:href="#DejaVuSans-44" transform="translate(41.109375 0)"/>
    <use xlink:href="#DejaVuSans-51" transform="translate(102.390625 0)"/>
    <use xlink:href="#DejaVuSans-4e" transform="translate(165.765625 0)"/>
    <use xlink:href="#DejaVuSans-4c" transform="translate(223.671875 0)"/>
    <use xlink:href="#DejaVuSans-51" transform="translate(251.453125 0)"/>
    <use xlink:href="#DejaVuSans-4a" transform="translate(314.828125 0)"/>
    <use xlink:href="#DejaVuSans-3" transform="translate(378.3125 0)"/>
    <use xlink:href="#DejaVuSans-45" transform="translate(410.09375 0)"/>
    <use xlink:href="#DejaVuSans-5c" transform="translate(473.578125 0)"/>
    <use xlink:href="#DejaVuSans-3" transform="translate(532.765625 0)"/>
    <use xlink:href="#DejaVuSans-55" transform="translate(564.546875 0)"/>
    <use xlink:href="#DejaVuSans-48" transform="translate(603.453125 0)"/>
    <use xlink:href="#DejaVuSans-59" transform="translate(664.984375 0)"/>
    <use xlink:href="#DejaVuSans-48" transform="translate(724.171875 0)"/>
    <use xlink:href="#DejaVuSans-55" transform="translate(785.703125 0)"/>
    <use xlink:href="#DejaVuSans-56" transform="translate(826.8125 0)"/>
    <use xlink:href="#DejaVuSans-44" transform="translate(878.90625 0)"/>
    <use xlink:href="#DejaVuSans-4f" transform="translate(940.1875 0)"/>
    <use xlink:href="#DejaVuSans-3" transform="translate(967.96875 0)"/>
    <use xlink:href="#DejaVuSans-56" transform="translate(999.75 0)"/>
    <use xlink:href="#DejaVuSans-53" transform="translate(1051.84375 0)"/>
    <use xlink:href="#DejaVuSans-48" transform="translate(1115.328125 0)"/>
    <use xlink:href="#DejaVuSans-46" transform="translate(1176.859375 0)"/>
    <use xlink:href="#DejaVuSans-4c" transform="translate(1231.84375 0)"/>
    <use xlink:href="#DejaVuSans-13af" transform="translate(1259.625 0)"/>
    <use xlink:href="#DejaVuSans-46" transform="translate(1322.609375 0)"/>
    <use xlink:href="#DejaVuSans-44" transform="translate(1377.59375 0)"/>
    <use xlink:href="#DejaVuSans-4f" transform="translate(1438.875 0)"/>
    <use xlink:href="#DejaVuSans-4f" transform="translate(1466.65625 0)"/>
    <use xlink:href="#DejaVuSans-5c" transform="translate(1494.4375 0)"/>
    <use xlink:href="#DejaVuSans-3" transform="translate(1553.625 0)"/>
    <use xlink:href="#DejaVuSans-45" transform="translate(1585.40625 0)"/>
    <use xlink:href="#DejaVuSans-55" transform="translate(1648.890625 0)"/>
    <use xlink:href="#DejaVuSans-4c" transform="translate(1690 0)"/>
    <use xlink:href="#DejaVuSans-51" transform="translate(1717.78125 0)"/>
    <use xlink:href="#DejaVuSans-4a" transform="translate(1781.15625 0)"/>
    <use xlink:href="#DejaVuSans-56" transform="translate(1844.640625 0)"/>
    <use xlink:href="#DejaVuSans-3" transform="translate(1896.734375 0)"/>
    <use xlink:href="#DejaVuSans-4c" transform="translate(1928.515625 0)"/>
    <use xlink:href="#DejaVuSans-51" transform="translate(1956.296875 0)"/>
    <use xlink:href="#DejaVuSans-11" transform="translate(2019.671875 0)"/>
    <use xlink:href="#DejaVuSans-3" transform="translate(2051.453125 0)"/>
    <use xlink:href="#DejaVuSans-2c" transform="translate(2083.234375 0)"/>
    <use xlink:href="#DejaVuSans-57" transform="translate(2112.734375 0)"/>
    <use xlink:href="#DejaVuSans-3" transform="translate(2151.9375 0)"/>
    <use xlink:href="#DejaVuSans-4c" transform="translate(2183.71875 0)"/>
    <use xlink:href="#DejaVuSans-56" transform="translate(2211.5 0)"/>
    <use xlink:href="#DejaVuSans-3" transform="translate(2263.59375 0)"/>
    <use xlink:href="#DejaVuSans-44" transform="translate(2295.375 0)"/>
    <use xlink:href="#DejaVuSans-4f" transform="translate(2356.65625 0)"/>
    <use xlink:href="#DejaVuSans-56" transform="translate(2384.4375 0)"/>
    <use xlink:href="#DejaVuSans-52" transform="translate(2436.53125 0)"/>
    <use xlink:href="#DejaVuSans-3" transform="translate(2497.71875 0)"/>
    <use xlink:href="#DejaVuSans-57" transform="translate(2529.5 0)"/>
    <use xlink:href="#DejaVuSans-4b" transform="translate(2568.703125 0)"/>
    <use xlink:href="#DejaVuSans-48" transform="translate(2632.078125 0)"/>
    <use xlink:href="#DejaVuSans-3" transform="translate(2693.609375 0)"/>
    <use xlink:href="#DejaVuSans-44" transform="translate(2725.390625 0)"/>
    <use xlink:href="#DejaVuSans-5b" transform="translate(2786.671875 0)"/>
    <use xlink:href="#DejaVuSans-4c" transform="translate(2845.859375 0)"/>
    <use xlink:href="#DejaVuSans-56" transform="translate(2873.640625 0)"/>
    <use xlink:href="#DejaVuSans-3" transform="translate(2925.734375 0)"/>
    <use xlink:href="#DejaVuSans-44" transform="translate(2957.515625 0)"/>
    <use xlink:href="#DejaVuSans-3" transform="translate(3018.796875 0)"/>
    <use xlink:href="#DejaVuSans-14" transform="translate(3050.578125 0)"/>
    <use xlink:href="#DejaVuSans-15" transform="translate(3114.203125 0)"/>
    <use xlink:href="#DejaVuSans-1a" transform="translate(3177.828125 0)"/>
    <use xlink:href="#DejaVuSans-10" transform="translate(3241.453125 0)"/>
    <use xlink:href="#DejaVuSans-44" transform="translate(3277.53125 0)"/>
    <use xlink:href="#DejaVuSans-4a" transform="translate(3338.8125 0)"/>
    <use xlink:href="#DejaVuSans-48" transform="translate(3402.296875 0)"/>
    <use xlink:href="#DejaVuSans-51" transform="translate(3463.828125 0)"/>
    <use xlink:href="#DejaVuSans-57" transform="translate(3527.203125 0)"/>
    <use xlink:href="#DejaVuSans-3" transform="translate(3566.40625 0)"/>
    <use xlink:href="#DejaVuSans-44" transform="translate(3598.1875 0)"/>
    <use xlink:href="#DejaVuSans-47" transform="translate(3659.46875 0)"/>
    <use xlink:href="#DejaVuSans-59" transform="translate(3722.953125 0)"/>
    <use xlink:href="#DejaVuSans-48" transform="translate(3782.140625 0)"/>
    <use xlink:href="#DejaVuSans-55" transform="translate(3843.671875 0)"/>
    <use xlink:href="#DejaVuSans-56" transform="translate(3884.78125 0)"/>
    <use xlink:href="#DejaVuSans-44" transform="translate(3936.875 0)"/>
    <use xlink:href="#DejaVuSans-55" transform="translate(3998.15625 0)"/>
    <use xlink:href="#DejaVuSans-4c" transform="translate(4039.265625 0)"/>
    <use xlink:href="#DejaVuSans-44" transform="translate(4067.046875 0)"/>
    <use xlink:href="#DejaVuSans-4f" transform="translate(4128.328125 0)"/>
    <use xlink:href="#DejaVuSans-3" transform="translate(4156.109375 0)"/>
    <use xlink:href="#DejaVuSans-44" transform="translate(4187.890625 0)"/>
    <use xlink:href="#DejaVuSans-58" transform="translate(4249.171875 0)"/>
    <use xlink:href="#DejaVuSans-47" transform="translate(4312.546875 0)"/>
    <use xlink:href="#DejaVuSans-4c" transform="translate(4376.03125 0)"/>
    <use xlink:href="#DejaVuSans-57" transform="translate(4403.8125 0)"/>
    <use xlink:href="#DejaVuSans-3" transform="translate(4443.015625 0)"/>
    <use xlink:href="#DejaVuSans-44" transform="translate(4474.796875 0)"/>
    <use xlink:href="#DejaVuSans-57" transform="translate(4536.078125 0)"/>
    <use xlink:href="#DejaVuSans-57" transform="translate(4575.28125 0)"/>
    <use xlink:href="#DejaVuSans-44" transform="translate(4614.484375 0)"/>
    <use xlink:href="#DejaVuSans-46" transform="translate(4675.765625 0)"/>
    <use xlink:href="#DejaVuSans-4e" transform="translate(4730.75 0)"/>
    <use xlink:href="#DejaVuSans-48" transform="translate(4785.09375 0)"/>
    <use xlink:href="#DejaVuSans-47" transform="translate(4846.625 0)"/>
    <use xlink:href="#DejaVuSans-3" transform="translate(4910.109375 0)"/>
    <use xlink:href="#DejaVuSans-4b" transform="translate(4941.890625 0)"/>
    <use xlink:href="#DejaVuSans-44" transform="translate(5005.265625 0)"/>
    <use xlink:href="#DejaVuSans-55" transform="translate(5066.546875 0)"/>
    <use xlink:href="#DejaVuSans-47" transform="translate(5105.90625 0)"/>
    <use xlink:href="#DejaVuSans-48" transform="translate(5169.390625 0)"/>
    <use xlink:href="#DejaVuSans-56" transform="translate(5230.921875 0)"/>
    <use xlink:href="#DejaVuSans-57" transform="translate(5283.015625 0)"/>
    <use xlink:href="#DejaVuSans-11" transform="translate(5322.21875 0)"/>
   </g>
  </g>
 </g>
 <defs>
  <clipPath id="p399ef5e2a2">
   <rect x="102.24" y="54.103223" width="613.8" height="365.904"/>
  </clipPath>
 </defs>
</svg>
